<svg width="1440" height="772" viewBox="0 0 1440 772" fill="none" xmlns="http://www.w3.org/2000/svg">
<g opacity="0.2">
<mask id="mask0_3_9390" style="mask-type:alpha" maskUnits="userSpaceOnUse" x="0" y="0" width="1440" height="772">
<path d="M286.721 137.025C162.393 157.33 36.2295 143.646 0 118.794V610.546C0 610.546 220.308 747.762 379.5 767.876C590.614 794.551 699.194 673.277 909.75 642.512C1115.02 612.519 1440 610.546 1440 610.546V69.2107C1372.46 46.2094 1178.95 0.206787 945.246 0.206787C653.115 0.206787 442.131 111.644 286.721 137.025Z" fill="#FFCCC2"/>
</mask>
<g mask="url(#mask0_3_9390)">
<path d="M318.224 351.239C318.696 347.94 319.841 344.708 321.594 342.015C330.895 327.137 350.44 327.473 360.55 340.938C363.178 344.372 365.133 348.681 365.605 353.393C366.076 358.039 364.863 363.088 361.965 366.185C359.067 369.282 354.484 370.023 351.249 367.397C349.901 366.32 348.62 364.771 347.812 363.29C346.935 361.674 346.059 359.991 344.307 359.251C343.565 358.914 342.689 358.847 341.88 358.847C339.252 358.981 337.095 360.261 335.882 362.55C334.871 364.435 333.86 366.589 331.771 367.532C330.355 368.138 328.805 368.138 327.322 367.734C319.572 365.781 317.213 358.443 318.224 351.239Z" fill="#CE9A90"/>
<path d="M329.007 313.133C322.47 315.557 321.122 325.117 328.064 327.945C331.029 329.156 334.669 328.348 336.826 325.992C338.982 323.636 339.521 319.933 338.039 317.105C336.489 314.008 332.445 311.854 329.007 313.133Z" fill="#CE9A90"/>
<path d="M349.833 313.133C343.296 315.557 341.948 325.117 348.89 327.945C351.855 329.156 355.495 328.348 357.652 325.992C359.808 323.636 360.348 319.933 358.865 317.105C357.315 314.008 353.203 311.854 349.833 313.133Z" fill="#CE9A90"/>
<path d="M367.087 326.598C361.628 327.81 360.01 335.148 364.054 338.851C367.087 341.679 372.479 341.208 375.04 337.976C379.556 332.253 373.692 325.184 367.087 326.598Z" fill="#CE9A90"/>
<path d="M312.427 326.598C306.968 327.81 305.351 335.148 309.395 338.851C312.427 341.679 317.819 341.208 320.38 337.976C324.963 332.253 319.1 325.184 312.427 326.598Z" fill="#CE9A90"/>
<path d="M88.5312 452.9C89.8791 449.87 91.9011 447.043 94.26 444.888C107.2 433.039 125.937 438.627 132.07 454.314C133.688 458.353 134.429 462.999 133.62 467.644C132.812 472.29 130.251 476.801 126.678 479.022C123.039 481.244 118.388 480.705 116.03 477.339C115.019 475.925 114.21 474.108 113.873 472.424C113.468 470.607 113.064 468.789 111.581 467.577C110.907 467.038 110.166 466.769 109.357 466.567C106.796 465.961 104.37 466.634 102.617 468.587C101.135 470.135 99.5845 471.953 97.3603 472.29C95.8102 472.492 94.3274 472.02 92.9794 471.28C85.9026 467.24 85.5657 459.565 88.5312 452.9Z" fill="#CE9A90"/>
<path d="M109.155 419.103C102.213 419.709 98.3039 428.528 104.235 433.106C106.729 435.059 110.503 435.261 113.199 433.578C115.895 431.895 117.378 428.461 116.771 425.364C116.164 421.93 112.794 418.833 109.155 419.103Z" fill="#CE9A90"/>
<path d="M129.172 424.691C122.23 425.297 118.321 434.116 124.252 438.694C126.746 440.647 130.52 440.849 133.216 439.166C135.912 437.483 137.395 434.049 136.788 430.952C136.182 427.518 132.812 424.421 129.172 424.691Z" fill="#CE9A90"/>
<path d="M142.18 442.33C136.586 441.993 133.014 448.659 135.912 453.371C138.069 456.872 143.393 457.949 146.696 455.526C152.694 451.082 148.92 442.667 142.18 442.33Z" fill="#CE9A90"/>
<path d="M89.5422 427.653C83.9482 427.317 80.3761 433.982 83.2742 438.694C85.4309 442.195 90.7554 443.273 94.0579 440.849C100.056 436.405 96.3494 427.99 89.5422 427.653Z" fill="#CE9A90"/>
<path d="M796.75 302.765C797.222 299.466 798.367 296.234 800.12 293.541C809.421 278.662 828.966 278.999 839.076 292.464C841.704 295.898 843.659 300.207 844.131 304.919C844.602 309.565 843.389 314.614 840.491 317.711C837.593 320.808 833.01 321.549 829.775 318.923C828.427 317.846 827.146 316.297 826.338 314.816C825.461 313.2 824.585 311.517 822.833 310.777C822.092 310.44 821.215 310.373 820.407 310.373C817.778 310.507 815.621 311.786 814.408 314.076C813.397 315.961 812.386 318.115 810.297 319.058C808.882 319.664 807.331 319.664 805.849 319.26C798.098 317.307 795.739 309.969 796.75 302.765Z" fill="#CE9A90"/>
<path d="M807.534 264.659C800.996 267.083 799.648 276.643 806.59 279.47C809.555 280.682 813.195 279.874 815.352 277.518C817.508 275.162 818.048 271.459 816.565 268.631C815.015 265.534 810.971 263.38 807.534 264.659Z" fill="#CE9A90"/>
<path d="M828.36 264.659C821.822 267.083 820.474 276.643 827.416 279.47C830.382 280.682 834.021 279.874 836.178 277.518C838.334 275.162 838.874 271.459 837.391 268.631C835.841 265.534 831.729 263.38 828.36 264.659Z" fill="#CE9A90"/>
<path d="M845.614 278.124C840.154 279.336 838.537 286.674 842.581 290.377C845.614 293.205 851.005 292.733 853.566 289.502C858.082 283.779 852.219 276.71 845.614 278.124Z" fill="#CE9A90"/>
<path d="M790.954 278.124C785.494 279.336 783.877 286.674 787.921 290.377C790.954 293.205 796.345 292.733 798.907 289.502C803.49 283.779 797.626 276.71 790.954 278.124Z" fill="#CE9A90"/>
<path d="M1275.17 302.765C1275.64 299.466 1276.79 296.234 1278.54 293.541C1287.84 278.662 1307.39 278.999 1317.49 292.464C1320.12 295.898 1322.08 300.207 1322.55 304.919C1323.02 309.565 1321.81 314.614 1318.91 317.711C1316.01 320.808 1311.43 321.549 1308.19 318.923C1306.85 317.846 1305.57 316.297 1304.76 314.816C1303.88 313.2 1303 311.517 1301.25 310.777C1300.51 310.44 1299.63 310.373 1298.83 310.373C1296.2 310.507 1294.04 311.786 1292.83 314.076C1291.82 315.961 1290.81 318.115 1288.72 319.058C1287.3 319.664 1285.75 319.664 1284.27 319.26C1276.52 317.307 1274.16 309.969 1275.17 302.765Z" fill="#CE9A90"/>
<path d="M1285.95 264.659C1279.41 267.083 1278.07 276.643 1285.01 279.47C1287.97 280.682 1291.61 279.874 1293.77 277.518C1295.93 275.162 1296.47 271.459 1294.98 268.631C1293.43 265.534 1289.39 263.38 1285.95 264.659Z" fill="#CE9A90"/>
<path d="M1306.78 264.659C1300.24 267.083 1298.89 276.643 1305.83 279.47C1308.8 280.682 1312.44 279.874 1314.6 277.518C1316.75 275.162 1317.29 271.459 1315.81 268.631C1314.26 265.534 1310.15 263.38 1306.78 264.659Z" fill="#CE9A90"/>
<path d="M1324.03 278.124C1318.57 279.336 1316.96 286.674 1321 290.377C1324.03 293.205 1329.42 292.733 1331.99 289.502C1336.5 283.779 1330.64 276.71 1324.03 278.124Z" fill="#CE9A90"/>
<path d="M1269.37 278.124C1263.91 279.336 1262.3 286.674 1266.34 290.377C1269.37 293.205 1274.76 292.733 1277.33 289.502C1281.91 283.779 1276.05 276.71 1269.37 278.124Z" fill="#CE9A90"/>
<path d="M502.085 269.439C503.77 266.611 506.129 264.053 508.691 262.168C522.979 251.934 540.907 259.744 545.153 276.037C546.231 280.211 546.433 284.991 545.085 289.435C543.737 293.945 540.705 298.119 536.795 299.87C532.954 301.62 528.371 300.543 526.416 296.908C525.607 295.426 525.001 293.474 524.866 291.791C524.664 289.973 524.529 288.088 523.181 286.742C522.575 286.136 521.833 285.732 521.092 285.462C518.598 284.587 516.104 284.991 514.15 286.607C512.532 288.021 510.712 289.569 508.488 289.636C506.938 289.636 505.523 289.031 504.31 288.088C497.772 283.375 498.379 275.7 502.085 269.439Z" fill="#CE9A90"/>
<path d="M526.618 238.335C519.676 238.065 514.689 246.414 520.081 251.665C522.372 253.887 526.079 254.56 528.977 253.214C531.875 251.867 533.763 248.635 533.493 245.471C533.223 241.97 530.258 238.469 526.618 238.335Z" fill="#CE9A90"/>
<path d="M545.827 246.212C538.885 245.942 533.897 254.291 539.289 259.542C541.581 261.764 545.288 262.437 548.186 261.091C551.084 259.744 552.971 256.512 552.702 253.348C552.432 249.847 549.466 246.346 545.827 246.212Z" fill="#CE9A90"/>
<path d="M556.61 265.265C551.084 264.322 546.77 270.449 549.129 275.431C550.814 279.201 556.004 280.817 559.576 278.797C566.046 275.229 563.283 266.409 556.61 265.265Z" fill="#CE9A90"/>
<path d="M506.129 244.461C500.603 243.519 496.289 249.645 498.648 254.627C500.333 258.398 505.523 260.013 509.095 257.994C515.565 254.358 512.802 245.606 506.129 244.461Z" fill="#CE9A90"/>
<path d="M661.684 467.913C660.875 464.682 660.673 461.248 661.212 458.084C664.11 440.781 682.241 433.645 696.798 442.195C700.505 444.417 704.01 447.581 706.234 451.755C708.458 455.862 709.267 460.979 707.784 464.951C706.302 468.923 702.325 471.414 698.349 470.203C696.731 469.731 694.911 468.789 693.631 467.712C692.215 466.567 690.8 465.355 688.845 465.355C688.037 465.355 687.228 465.557 686.419 465.961C683.993 467.106 682.578 469.125 682.308 471.684C682.106 473.838 682.038 476.195 680.421 477.878C679.342 479.022 677.86 479.561 676.377 479.763C668.491 480.773 663.504 474.983 661.684 467.913Z" fill="#CE9A90"/>
<path d="M1140.1 467.913C1139.29 464.682 1139.09 461.248 1139.63 458.084C1142.53 440.781 1160.66 433.645 1175.22 442.195C1178.92 444.417 1182.43 447.581 1184.65 451.755C1186.88 455.862 1187.69 460.979 1186.2 464.951C1184.72 468.923 1180.74 471.414 1176.77 470.203C1175.15 469.731 1173.33 468.789 1172.05 467.712C1170.63 466.567 1169.22 465.355 1167.26 465.355C1166.46 465.355 1165.65 465.557 1164.84 465.961C1162.41 467.106 1161 469.125 1160.73 471.684C1160.53 473.838 1160.46 476.195 1158.84 477.878C1157.76 479.022 1156.28 479.561 1154.8 479.763C1146.91 480.773 1141.92 474.983 1140.1 467.913Z" fill="#CE9A90"/>
<path d="M657.034 428.596C651.911 433.308 654.338 442.734 661.886 442.667C665.054 442.667 668.154 440.512 669.233 437.483C670.311 434.52 669.367 430.885 666.941 428.798C664.245 426.509 659.662 426.105 657.034 428.596Z" fill="#CE9A90"/>
<path d="M676.242 420.584C671.12 425.297 673.546 434.722 681.095 434.655C684.262 434.655 687.363 432.501 688.441 429.471C689.519 426.509 688.576 422.873 686.15 420.786C683.521 418.497 678.938 418.16 676.242 420.584Z" fill="#CE9A90"/>
<path d="M1135.45 428.596C1130.33 433.308 1132.76 442.734 1140.31 442.667C1143.47 442.667 1146.57 440.512 1147.65 437.483C1148.73 434.52 1147.79 430.885 1145.36 428.798C1142.66 426.509 1138.08 426.105 1135.45 428.596Z" fill="#CE9A90"/>
<path d="M1154.66 420.584C1149.54 425.297 1151.97 434.722 1159.51 434.655C1162.68 434.655 1165.78 432.501 1166.86 429.471C1167.94 426.509 1167 422.873 1164.57 420.786C1161.94 418.497 1157.36 418.16 1154.66 420.584Z" fill="#CE9A90"/>
<path d="M697.338 426.441C692.755 429.673 694.035 437.011 699.225 438.964C703.066 440.378 707.919 437.954 708.998 433.982C711.019 426.845 702.932 422.604 697.338 426.441Z" fill="#CE9A90"/>
<path d="M1175.76 426.441C1171.17 429.673 1172.45 437.011 1177.64 438.964C1181.49 440.378 1186.34 437.954 1187.42 433.982C1189.44 426.845 1181.35 422.604 1175.76 426.441Z" fill="#CE9A90"/>
<path d="M646.856 447.379C642.273 450.611 643.554 457.949 648.744 459.902C652.585 461.316 657.438 458.892 658.516 454.92C660.538 447.783 652.451 443.474 646.856 447.379Z" fill="#CE9A90"/>
<path d="M307.44 136.27C306.833 133.038 306.833 129.604 307.575 126.44C311.416 109.34 330.018 103.28 344.037 112.639C347.677 115.062 350.912 118.429 352.934 122.737C354.888 126.979 355.427 132.163 353.675 136C351.99 139.905 347.879 142.127 343.97 140.646C342.352 140.04 340.667 139.03 339.387 137.885C338.039 136.674 336.691 135.327 334.736 135.26C333.927 135.192 333.051 135.394 332.31 135.731C329.816 136.741 328.266 138.626 327.929 141.184C327.659 143.339 327.39 145.695 325.705 147.244C324.559 148.321 323.076 148.792 321.526 148.927C313.506 149.533 308.855 143.406 307.44 136.27Z" fill="#CE9A90"/>
<path d="M305.081 96.7498C299.689 101.193 301.576 110.686 309.057 111.09C312.225 111.225 315.46 109.272 316.673 106.377C317.954 103.482 317.213 99.7794 314.921 97.5577C312.427 95.0667 307.912 94.3934 305.081 96.7498Z" fill="#CE9A90"/>
<path d="M324.761 89.8827C319.369 94.3261 321.256 103.819 328.738 104.223C331.905 104.358 335.14 102.405 336.354 99.5102C337.634 96.6152 336.893 92.9123 334.601 90.6906C332.108 88.2669 327.524 87.5936 324.761 89.8827Z" fill="#CE9A90"/>
<path d="M345.453 96.9518C340.667 99.9141 341.543 107.32 346.598 109.542C350.373 111.225 355.293 109.003 356.641 105.165C359.134 98.1636 351.249 93.3836 345.453 96.9518Z" fill="#CE9A90"/>
<path d="M293.893 114.86C289.108 117.823 289.984 125.228 295.039 127.45C298.813 129.133 303.733 126.911 305.081 123.074C307.507 116.072 299.689 111.359 293.893 114.86Z" fill="#CE9A90"/>
<path d="M88.4638 173.231C89.8117 170.202 91.9011 167.441 94.26 165.287C107.335 153.572 126.004 159.43 132.003 175.184C133.553 179.223 134.227 183.936 133.351 188.514C132.475 193.092 129.914 197.603 126.207 199.757C122.567 201.912 117.917 201.373 115.558 197.94C114.614 196.526 113.805 194.708 113.468 193.025C113.064 191.207 112.727 189.389 111.244 188.177C110.57 187.639 109.829 187.302 109.02 187.1C106.459 186.494 104.033 187.1 102.213 188.985C100.73 190.534 99.1127 192.352 96.8885 192.621C95.3384 192.823 93.8556 192.352 92.5076 191.544C85.7004 187.504 85.4309 179.829 88.4638 173.231Z" fill="#CE9A90"/>
<path d="M109.559 139.636C102.617 140.107 98.5734 148.927 104.504 153.64C106.998 155.592 110.772 155.861 113.468 154.246C116.232 152.63 117.714 149.196 117.175 146.032C116.501 142.531 113.131 139.367 109.559 139.636Z" fill="#CE9A90"/>
<path d="M129.509 145.493C122.567 145.965 118.523 154.784 124.454 159.497C126.948 161.449 130.722 161.719 133.418 160.103C136.182 158.487 137.664 155.053 137.125 151.889C136.451 148.388 133.149 145.224 129.509 145.493Z" fill="#CE9A90"/>
<path d="M142.247 163.267C136.653 162.863 133.014 169.461 135.845 174.174C137.934 177.675 143.258 178.819 146.628 176.463C152.694 172.154 149.055 163.738 142.247 163.267Z" fill="#CE9A90"/>
<path d="M89.8117 147.917C84.2177 147.513 80.5782 154.111 83.4089 158.824C85.4983 162.325 90.8227 163.469 94.1926 161.113C100.258 156.804 96.6189 148.388 89.8117 147.917Z" fill="#CE9A90"/>
<path d="M806.523 8.62112C805.579 5.45684 805.309 2.02325 805.781 -1.20835C808.073 -18.5783 826.068 -26.3207 840.828 -18.2416C844.67 -16.1545 848.242 -13.0576 850.601 -9.01808C852.96 -4.97857 853.903 0.138149 852.555 4.17766C851.207 8.21717 847.298 10.7755 843.322 9.69832C841.637 9.22705 839.885 8.35182 838.537 7.34194C837.054 6.19741 835.571 5.05288 833.684 5.12021C832.875 5.12021 832.066 5.38951 831.325 5.79346C828.966 7.00531 827.551 9.0924 827.416 11.6508C827.281 13.8052 827.281 16.1615 825.731 17.8447C824.72 18.9892 823.237 19.5951 821.754 19.8644C813.734 21.2783 808.544 15.6229 806.523 8.62112Z" fill="#CE9A90"/>
<path d="M791.088 -11.4418C786.573 -8.07554 788.123 -0.737092 793.38 1.01336C797.289 2.29254 802.007 -0.265812 803.018 -4.238C804.77 -11.4418 796.48 -15.4813 791.088 -11.4418Z" fill="#CE9A90"/>
<path d="M1284.94 8.62112C1284 5.45684 1283.73 2.02325 1284.2 -1.20835C1286.49 -18.5783 1304.49 -26.3207 1319.25 -18.2416C1323.09 -16.1545 1326.66 -13.0576 1329.02 -9.01808C1331.38 -4.97857 1332.32 0.138149 1330.97 4.17766C1329.63 8.21717 1325.72 10.7755 1321.74 9.69832C1320.06 9.22705 1318.3 8.35182 1316.96 7.34194C1315.47 6.19741 1313.99 5.05288 1312.1 5.12021C1311.29 5.12021 1310.49 5.38951 1309.74 5.79346C1307.39 7.00531 1305.97 9.0924 1305.84 11.6508C1305.7 13.8052 1305.7 16.1615 1304.15 17.8447C1303.14 18.9892 1301.66 19.5951 1300.17 19.8644C1292.15 21.2783 1286.96 15.6229 1284.94 8.62112Z" fill="#CE9A90"/>
<path d="M1269.51 -11.4418C1264.99 -8.07554 1266.54 -0.737092 1271.8 1.01336C1275.71 2.29254 1280.43 -0.265812 1281.44 -4.238C1283.19 -11.4418 1274.9 -15.4813 1269.51 -11.4418Z" fill="#CE9A90"/>
<path d="M986.206 171.683C988.295 169.124 991.059 166.97 993.889 165.556C1009.59 157.746 1026.04 168.316 1027.66 185.08C1028.06 189.389 1027.52 194.102 1025.43 198.344C1023.34 202.585 1019.7 206.221 1015.59 207.298C1011.48 208.442 1007.17 206.625 1005.82 202.72C1005.28 201.104 1005.01 199.084 1005.08 197.401C1005.21 195.583 1005.35 193.698 1004.2 192.15C1003.73 191.476 1003.06 190.938 1002.31 190.534C1000.02 189.255 997.461 189.255 995.305 190.601C993.485 191.678 991.463 193.025 989.171 192.688C987.621 192.486 986.341 191.611 985.262 190.534C979.736 184.744 981.555 177.271 986.206 171.683Z" fill="#CE9A90"/>
<path d="M1015.46 144.887C1008.58 143.541 1002.38 150.947 1006.9 157.006C1008.78 159.564 1012.36 160.776 1015.39 159.968C1018.49 159.093 1020.85 156.198 1021.12 153.034C1021.39 149.533 1019.03 145.628 1015.46 144.887Z" fill="#CE9A90"/>
<path d="M1033.18 155.861C1026.31 154.515 1020.11 161.921 1024.62 167.98C1026.51 170.538 1030.08 171.75 1033.11 170.942C1036.22 170.067 1038.57 167.172 1038.84 164.008C1039.11 160.507 1036.69 156.535 1033.18 155.861Z" fill="#CE9A90"/>
<path d="M1040.73 176.328C1035.41 174.51 1030.22 179.829 1031.7 185.215C1032.78 189.187 1037.63 191.678 1041.47 190.264C1048.41 187.639 1047.13 178.55 1040.73 176.328Z" fill="#CE9A90"/>
<path d="M994.294 147.715C988.969 145.897 983.779 151.216 985.262 156.602C986.341 160.574 991.193 163.065 995.035 161.651C1001.91 159.026 1000.7 149.937 994.294 147.715Z" fill="#CE9A90"/>
<path d="M504.242 -0.198433C504.714 -3.49737 505.86 -6.72898 507.612 -9.42199C516.913 -24.3009 536.458 -23.9642 546.568 -10.4992C549.197 -7.06561 551.151 -2.75679 551.623 1.95597C552.095 6.60141 550.882 11.6508 547.984 14.7478C545.085 17.8447 540.502 18.5853 537.267 15.9596C535.919 14.8824 534.639 13.3339 533.83 11.8528C532.954 10.237 532.078 8.55384 530.325 7.81326C529.584 7.47664 528.708 7.40931 527.899 7.40931C525.27 7.54396 523.114 8.82314 521.9 11.1122C520.89 12.9973 519.879 15.1517 517.789 16.0943C516.374 16.7002 514.824 16.7002 513.341 16.2962C505.59 14.3438 503.231 7.00536 504.242 -0.198433Z" fill="#CE9A90"/>
<path d="M655.888 180.233C656.36 176.934 657.505 173.702 659.258 171.009C668.559 156.131 688.104 156.467 698.214 169.932C700.842 173.366 702.797 177.675 703.269 182.387C703.741 187.033 702.527 192.082 699.629 195.179C696.731 198.276 692.148 199.017 688.913 196.391C687.565 195.314 686.284 193.765 685.476 192.284C684.599 190.668 683.723 188.985 681.971 188.245C681.23 187.908 680.353 187.841 679.545 187.841C676.916 187.975 674.759 189.255 673.546 191.544C672.535 193.429 671.524 195.583 669.435 196.526C668.02 197.132 666.469 197.132 664.987 196.728C657.236 194.775 654.877 187.437 655.888 180.233Z" fill="#CE9A90"/>
<path d="M1134.31 180.233C1134.78 176.934 1135.92 173.702 1137.68 171.009C1146.98 156.131 1166.52 156.467 1176.63 169.932C1179.26 173.366 1181.22 177.675 1181.69 182.387C1182.16 187.033 1180.95 192.082 1178.05 195.179C1175.15 198.276 1170.57 199.017 1167.33 196.391C1165.98 195.314 1164.7 193.765 1163.89 192.284C1163.02 190.668 1162.14 188.985 1160.39 188.245C1159.65 187.908 1158.77 187.841 1157.96 187.841C1155.34 187.975 1153.18 189.255 1151.97 191.544C1150.95 193.429 1149.94 195.583 1147.85 196.526C1146.44 197.132 1144.89 197.132 1143.41 196.728C1135.66 194.775 1133.3 187.437 1134.31 180.233Z" fill="#CE9A90"/>
<path d="M666.672 142.127C660.134 144.551 658.786 154.111 665.728 156.939C668.694 158.15 672.333 157.342 674.49 154.986C676.646 152.63 677.186 148.927 675.703 146.099C674.153 143.002 670.109 140.848 666.672 142.127Z" fill="#CE9A90"/>
<path d="M687.498 142.127C680.96 144.551 679.612 154.111 686.554 156.939C689.52 158.15 693.159 157.342 695.316 154.986C697.473 152.63 698.012 148.927 696.529 146.099C694.979 143.002 690.867 140.848 687.498 142.127Z" fill="#CE9A90"/>
<path d="M1145.09 142.127C1138.55 144.551 1137.21 154.111 1144.15 156.939C1147.11 158.15 1150.75 157.342 1152.91 154.986C1155.07 152.63 1155.6 148.927 1154.12 146.099C1152.57 143.002 1148.53 140.848 1145.09 142.127Z" fill="#CE9A90"/>
<path d="M1165.92 142.127C1159.38 144.551 1158.03 154.111 1164.97 156.939C1167.94 158.15 1171.58 157.342 1173.74 154.986C1175.89 152.63 1176.43 148.927 1174.95 146.099C1173.4 143.002 1169.29 140.848 1165.92 142.127Z" fill="#CE9A90"/>
<path d="M704.752 155.592C699.292 156.804 697.675 164.142 701.719 167.845C704.752 170.673 710.143 170.202 712.704 166.97C717.22 161.247 711.357 154.178 704.752 155.592Z" fill="#CE9A90"/>
<path d="M1183.17 155.592C1177.71 156.804 1176.09 164.142 1180.14 167.845C1183.17 170.673 1188.56 170.202 1191.12 166.97C1195.64 161.247 1189.78 154.178 1183.17 155.592Z" fill="#CE9A90"/>
<path d="M650.092 155.592C644.632 156.804 643.015 164.142 647.059 167.845C650.092 170.673 655.484 170.202 658.045 166.97C662.628 161.247 656.764 154.178 650.092 155.592Z" fill="#CE9A90"/>
<path d="M259.79 585.867C259.857 582.568 260.531 579.202 261.879 576.24C269.158 560.284 288.569 558.062 300.363 570.046C303.396 573.143 305.957 577.115 307.036 581.693C308.114 586.271 307.575 591.388 305.081 594.889C302.587 598.323 298.139 599.669 294.634 597.515C293.152 596.639 291.669 595.226 290.725 593.879C289.647 592.398 288.569 590.849 286.681 590.311C285.873 590.109 284.996 590.109 284.188 590.243C281.559 590.715 279.605 592.263 278.796 594.754C278.054 596.774 277.313 599.063 275.359 600.208C274.011 601.016 272.46 601.15 270.978 601.016C263.025 600.073 259.722 593.138 259.79 585.867Z" fill="#CE9A90"/>
<path d="M265.518 546.684C259.318 549.916 259.25 559.61 266.529 561.496C269.63 562.303 273.134 561.024 274.954 558.399C276.774 555.773 276.841 552.07 275.021 549.377C273.067 546.549 268.686 545.001 265.518 546.684Z" fill="#CE9A90"/>
<path d="M286.142 543.924C279.941 547.155 279.874 556.85 287.153 558.735C290.253 559.543 293.758 558.264 295.578 555.638C297.398 553.013 297.465 549.31 295.645 546.617C293.691 543.789 289.31 542.241 286.142 543.924Z" fill="#CE9A90"/>
<path d="M305.014 555.032C299.757 556.918 299.083 564.391 303.598 567.622C306.968 569.979 312.225 568.901 314.315 565.333C318.089 558.937 311.349 552.743 305.014 555.032Z" fill="#CE9A90"/>
<path d="M250.826 562.169C245.569 564.054 244.895 571.527 249.41 574.759C252.78 577.115 258.037 576.038 260.127 572.469C263.968 566.141 257.228 559.88 250.826 562.169Z" fill="#CE9A90"/>
<path d="M302.25 759.566C302.318 756.267 302.992 752.901 304.34 749.939C311.619 733.983 331.029 731.761 342.824 743.745C345.857 746.842 348.418 750.814 349.496 755.392C350.575 759.97 350.035 765.087 347.542 768.588C345.048 772.021 340.6 773.368 337.095 771.214C335.612 770.338 334.13 768.924 333.186 767.578C332.108 766.097 331.029 764.548 329.142 764.01C328.333 763.808 327.457 763.808 326.648 763.942C324.02 764.414 322.065 765.962 321.257 768.453C320.515 770.473 319.774 772.762 317.819 773.907C316.471 774.714 314.921 774.849 313.438 774.715C305.485 773.772 302.183 766.837 302.25 759.566Z" fill="#CE9A90"/>
<path d="M307.979 720.383C301.779 723.615 301.711 733.31 308.99 735.195C312.09 736.003 315.595 734.723 317.415 732.098C319.235 729.472 319.302 725.769 317.482 723.076C315.528 720.248 311.147 718.7 307.979 720.383Z" fill="#CE9A90"/>
<path d="M328.603 717.623C322.402 720.854 322.335 730.549 329.614 732.434C332.714 733.242 336.219 731.963 338.039 729.337C339.858 726.712 339.926 723.009 338.106 720.316C336.151 717.488 331.771 715.94 328.603 717.623Z" fill="#CE9A90"/>
<path d="M347.474 728.731C342.217 730.617 341.543 738.09 346.059 741.321C349.429 743.678 354.686 742.6 356.775 739.032C360.55 732.636 353.81 726.442 347.474 728.731Z" fill="#CE9A90"/>
<path d="M293.286 735.868C288.029 737.753 287.355 745.226 291.871 748.458C295.241 750.814 300.498 749.737 302.587 746.169C306.429 739.84 299.689 733.579 293.286 735.868Z" fill="#CE9A90"/>
<path d="M88.2616 727.519C89.8792 724.624 92.2381 722.066 94.7992 720.181C108.953 709.813 126.948 717.353 131.396 733.646C132.542 737.82 132.812 742.533 131.464 747.044C130.183 751.554 127.15 755.796 123.309 757.546C119.467 759.364 114.884 758.354 112.929 754.719C112.121 753.238 111.514 751.285 111.312 749.602C111.11 747.784 110.907 745.899 109.559 744.553C108.953 743.947 108.211 743.543 107.403 743.273C104.909 742.398 102.415 742.802 100.461 744.553C98.8431 745.966 97.0907 747.582 94.7992 747.65C93.249 747.717 91.8337 747.044 90.5531 746.168C84.1503 741.523 84.6221 733.848 88.2616 727.519Z" fill="#CE9A90"/>
<path d="M112.457 696.146C105.448 695.944 100.663 704.36 106.055 709.544C108.346 711.765 112.053 712.371 114.951 710.957C117.849 709.611 119.669 706.312 119.399 703.148C119.062 699.714 116.03 696.213 112.457 696.146Z" fill="#CE9A90"/>
<path d="M131.733 703.821C124.724 703.619 119.939 712.035 125.331 717.219C127.622 719.44 131.329 720.046 134.227 718.632C137.125 717.286 138.945 713.987 138.675 710.823C138.406 707.389 135.373 703.956 131.733 703.821Z" fill="#CE9A90"/>
<path d="M142.787 722.739C137.26 721.864 133.014 727.991 135.373 733.04C137.125 736.743 142.315 738.359 145.887 736.339C152.29 732.569 149.459 723.816 142.787 722.739Z" fill="#CE9A90"/>
<path d="M92.0359 702.474C86.5092 701.599 82.2631 707.726 84.6221 712.775C86.3744 716.478 91.5641 718.094 95.1362 716.074C101.539 712.371 98.7083 703.619 92.0359 702.474Z" fill="#CE9A90"/>
<path d="M988.025 669.35C987.284 666.119 987.217 662.685 987.823 659.521C991.193 642.286 1009.53 635.688 1023.88 644.642C1027.59 646.931 1030.96 650.23 1033.05 654.472C1035.14 658.646 1035.81 663.83 1034.19 667.735C1032.58 671.64 1028.53 673.996 1024.62 672.717C1023.01 672.178 1021.25 671.168 1019.97 670.091C1018.56 668.879 1017.21 667.667 1015.25 667.6C1014.45 667.6 1013.57 667.802 1012.83 668.139C1010.4 669.216 1008.85 671.168 1008.58 673.727C1008.31 675.881 1008.18 678.237 1006.56 679.853C1005.48 680.93 1004 681.469 1002.45 681.604C994.496 682.412 989.643 676.487 988.025 669.35Z" fill="#CE9A90"/>
<path d="M984.521 629.898C979.264 634.476 981.42 643.902 988.969 644.104C992.137 644.171 995.304 642.084 996.45 639.122C997.663 636.159 996.787 632.524 994.428 630.369C991.8 628.013 987.217 627.542 984.521 629.898Z" fill="#CE9A90"/>
<path d="M1003.93 622.492C998.674 627.07 1000.83 636.496 1008.38 636.698C1011.55 636.765 1014.71 634.678 1015.86 631.716C1017.07 628.754 1016.2 625.118 1013.84 622.964C1011.21 620.607 1006.69 620.136 1003.93 622.492Z" fill="#CE9A90"/>
<path d="M1024.82 628.955C1020.11 632.052 1021.25 639.458 1026.37 641.545C1030.22 643.094 1035.07 640.805 1036.28 636.832C1038.51 629.763 1030.55 625.185 1024.82 628.955Z" fill="#CE9A90"/>
<path d="M973.804 648.412C969.087 651.509 970.232 658.915 975.355 661.002C979.196 662.551 984.049 660.262 985.262 656.29C987.486 649.22 979.466 644.71 973.804 648.412Z" fill="#CE9A90"/>
<path d="M761.568 596.639C760.827 593.408 760.759 589.974 761.366 586.81C764.736 569.575 783.068 562.977 797.424 571.931C801.131 574.22 804.501 577.519 806.59 581.761C808.679 585.935 809.353 591.119 807.736 595.024C806.118 598.928 802.074 601.285 798.165 600.006C796.548 599.467 794.795 598.457 793.515 597.38C792.099 596.168 790.751 594.956 788.797 594.889C787.988 594.889 787.112 595.091 786.371 595.428C783.944 596.505 782.394 598.457 782.124 601.016C781.855 603.17 781.72 605.526 780.102 607.142C779.024 608.219 777.541 608.758 775.991 608.893C768.038 609.7 763.186 603.776 761.568 596.639Z" fill="#CE9A90"/>
<path d="M758.063 557.187C752.806 561.765 754.963 571.19 762.512 571.392C765.679 571.46 768.847 569.373 769.993 566.41C771.206 563.448 770.33 559.812 767.971 557.658C765.342 555.302 760.759 554.83 758.063 557.187Z" fill="#CE9A90"/>
<path d="M777.474 549.781C772.217 554.359 774.374 563.785 781.922 563.987C785.09 564.054 788.258 561.967 789.404 559.005C790.617 556.042 789.741 552.407 787.382 550.252C784.753 547.896 780.237 547.425 777.474 549.781Z" fill="#CE9A90"/>
<path d="M798.367 556.244C793.65 559.341 794.795 566.747 799.918 568.834C803.759 570.383 808.612 568.094 809.825 564.121C812.049 557.052 804.096 552.474 798.367 556.244Z" fill="#CE9A90"/>
<path d="M747.347 575.701C742.629 578.798 743.775 586.204 748.897 588.291C752.739 589.84 757.592 587.55 758.805 583.578C761.029 576.509 753.009 571.998 747.347 575.701Z" fill="#CE9A90"/>
<path d="M1239.99 596.639C1239.25 593.408 1239.18 589.974 1239.79 586.81C1243.16 569.575 1261.49 562.977 1275.84 571.931C1279.55 574.22 1282.92 577.519 1285.01 581.761C1287.1 585.935 1287.77 591.119 1286.16 595.024C1284.54 598.928 1280.49 601.285 1276.58 600.006C1274.97 599.467 1273.21 598.457 1271.93 597.38C1270.52 596.168 1269.17 594.956 1267.22 594.889C1266.41 594.889 1265.53 595.091 1264.79 595.428C1262.36 596.505 1260.81 598.457 1260.54 601.016C1260.27 603.17 1260.14 605.526 1258.52 607.142C1257.44 608.219 1255.96 608.758 1254.41 608.893C1246.46 609.7 1241.6 603.776 1239.99 596.639Z" fill="#CE9A90"/>
<path d="M1236.48 557.187C1231.23 561.765 1233.38 571.19 1240.93 571.392C1244.1 571.46 1247.27 569.373 1248.41 566.41C1249.63 563.448 1248.75 559.812 1246.39 557.658C1243.76 555.302 1239.18 554.83 1236.48 557.187Z" fill="#CE9A90"/>
<path d="M1255.89 549.781C1250.64 554.359 1252.79 563.785 1260.34 563.987C1263.51 564.054 1266.68 561.967 1267.82 559.005C1269.04 556.042 1268.16 552.407 1265.8 550.252C1263.17 547.896 1258.66 547.425 1255.89 549.781Z" fill="#CE9A90"/>
<path d="M1276.79 556.244C1272.07 559.341 1273.21 566.747 1278.34 568.834C1282.18 570.383 1287.03 568.094 1288.24 564.121C1290.47 557.052 1282.52 552.474 1276.79 556.244Z" fill="#CE9A90"/>
<path d="M1225.77 575.701C1221.05 578.798 1222.19 586.204 1227.32 588.291C1231.16 589.84 1236.01 587.55 1237.22 583.578C1239.45 576.509 1231.43 571.998 1225.77 575.701Z" fill="#CE9A90"/>
<path d="M807.196 731.155C809.421 728.731 812.251 726.712 815.217 725.432C831.325 718.498 847.163 729.876 847.837 746.707C848.04 751.016 847.164 755.729 844.939 759.836C842.648 763.942 838.806 767.376 834.627 768.251C830.449 769.126 826.27 767.174 825.124 763.135C824.653 761.451 824.45 759.499 824.653 757.816C824.855 755.998 825.124 754.113 824.046 752.497C823.574 751.824 822.968 751.218 822.226 750.814C820.002 749.4 817.508 749.266 815.217 750.477C813.33 751.487 811.24 752.699 809.016 752.228C807.466 751.891 806.253 751.016 805.242 749.871C799.985 743.88 802.209 736.474 807.196 731.155Z" fill="#CE9A90"/>
<path d="M837.795 705.975C831.055 704.225 824.45 711.361 828.562 717.623C830.314 720.316 833.819 721.73 836.919 720.989C840.019 720.316 842.58 717.555 842.985 714.391C843.457 710.957 841.3 706.851 837.795 705.975Z" fill="#CE9A90"/>
<path d="M854.914 717.825C848.174 716.074 841.569 723.211 845.681 729.472C847.433 732.165 850.938 733.579 854.038 732.838C857.138 732.165 859.7 729.405 860.104 726.241C860.576 722.807 858.419 718.7 854.914 717.825Z" fill="#CE9A90"/>
<path d="M861.384 738.696C856.195 736.541 850.668 741.658 851.881 747.044C852.758 751.083 857.408 753.776 861.384 752.565C868.394 750.41 867.653 741.254 861.384 738.696Z" fill="#CE9A90"/>
<path d="M816.497 707.591C811.308 705.437 805.781 710.554 806.994 715.94C807.87 719.979 812.521 722.672 816.497 721.46C823.574 719.306 822.765 710.15 816.497 707.591Z" fill="#CE9A90"/>
<path d="M1285.62 731.155C1287.84 728.731 1290.67 726.712 1293.64 725.432C1309.74 718.498 1325.58 729.876 1326.26 746.707C1326.46 751.016 1325.58 755.729 1323.36 759.836C1321.07 763.942 1317.23 767.376 1313.05 768.251C1308.87 769.126 1304.69 767.174 1303.54 763.135C1303.07 761.451 1302.87 759.499 1303.07 757.816C1303.27 755.998 1303.54 754.113 1302.47 752.497C1301.99 751.824 1301.39 751.218 1300.65 750.814C1298.42 749.4 1295.93 749.266 1293.64 750.477C1291.75 751.487 1289.66 752.699 1287.44 752.228C1285.89 751.891 1284.67 751.016 1283.66 749.871C1278.4 743.88 1280.63 736.474 1285.62 731.155Z" fill="#CE9A90"/>
<path d="M1316.21 705.975C1309.47 704.225 1302.87 711.361 1306.98 717.623C1308.73 720.316 1312.24 721.73 1315.34 720.989C1318.44 720.316 1321 717.555 1321.4 714.391C1321.88 710.957 1319.72 706.851 1316.21 705.975Z" fill="#CE9A90"/>
<path d="M1333.33 717.825C1326.59 716.074 1319.99 723.211 1324.1 729.472C1325.85 732.165 1329.36 733.579 1332.46 732.838C1335.56 732.165 1338.12 729.405 1338.52 726.241C1338.99 722.807 1336.84 718.7 1333.33 717.825Z" fill="#CE9A90"/>
<path d="M1339.8 738.696C1334.61 736.541 1329.09 741.658 1330.3 747.044C1331.18 751.083 1335.83 753.776 1339.8 752.565C1346.81 750.41 1346.07 741.254 1339.8 738.696Z" fill="#CE9A90"/>
<path d="M1294.92 707.591C1289.73 705.437 1284.2 710.554 1285.41 715.94C1286.29 719.979 1290.94 722.672 1294.92 721.46C1301.99 719.306 1301.18 710.15 1294.92 707.591Z" fill="#CE9A90"/>
<path d="M502.625 551.531C503.771 548.435 505.59 545.472 507.814 543.183C519.946 530.526 539.02 534.902 546.164 550.118C547.984 554.023 549.062 558.668 548.59 563.313C548.051 567.959 545.827 572.672 542.39 575.095C538.885 577.519 534.234 577.317 531.673 574.085C530.595 572.739 529.651 570.988 529.18 569.305C528.64 567.555 528.169 565.737 526.551 564.66C525.877 564.189 525.068 563.919 524.259 563.785C521.631 563.381 519.272 564.189 517.654 566.208C516.307 567.892 514.824 569.777 512.6 570.248C511.049 570.585 509.567 570.181 508.151 569.507C500.94 566.006 500.131 558.331 502.625 551.531Z" fill="#CE9A90"/>
<path d="M521.024 516.455C514.15 517.465 510.78 526.554 517.048 530.795C519.676 532.546 523.451 532.546 526.079 530.661C528.708 528.776 529.921 525.275 529.112 522.178C528.169 518.812 524.596 515.917 521.024 516.455Z" fill="#CE9A90"/>
<path d="M541.379 520.697C534.504 521.707 531.134 530.795 537.402 535.037C540.031 536.787 543.805 536.787 546.433 534.902C549.062 533.017 550.275 529.516 549.466 526.419C548.523 523.053 544.951 520.158 541.379 520.697Z" fill="#CE9A90"/>
<path d="M555.465 537.46C549.871 537.528 546.77 544.328 549.938 548.838C552.297 552.205 557.689 552.878 560.857 550.252C566.518 545.54 562.272 537.393 555.465 537.46Z" fill="#CE9A90"/>
<path d="M502.018 526.217C496.424 526.285 493.324 533.084 496.491 537.595C498.85 540.962 504.242 541.635 507.41 539.009C513.071 534.296 508.825 526.15 502.018 526.217Z" fill="#CE9A90"/>
<path d="M616.73 750.208C614.708 747.582 613.158 744.486 612.349 741.389C608.035 724.355 621.852 710.554 638.567 712.573C642.88 713.112 647.328 714.66 651.035 717.555C654.742 720.45 657.505 724.827 657.775 729.068C657.977 733.31 655.349 737.147 651.237 737.618C649.553 737.82 647.531 737.686 645.913 737.214C644.161 736.743 642.341 736.204 640.589 736.945C639.847 737.282 639.173 737.82 638.634 738.426C636.882 740.446 636.342 742.87 637.219 745.293C637.893 747.313 638.769 749.535 637.96 751.689C637.421 753.17 636.275 754.248 634.995 755.056C628.12 759.297 621.178 755.931 616.73 750.208Z" fill="#CE9A90"/>
<path d="M596.712 716.007C593.949 722.403 599.88 730.011 606.755 726.981C609.653 725.702 611.607 722.47 611.405 719.306C611.203 716.142 608.912 713.179 605.811 712.237C602.509 711.227 598.128 712.708 596.712 716.007Z" fill="#CE9A90"/>
<path d="M611.068 701.061C608.305 707.457 614.236 715.064 621.111 712.035C624.009 710.756 625.963 707.524 625.761 704.36C625.559 701.195 623.267 698.233 620.167 697.291C616.932 696.213 612.551 697.695 611.068 701.061Z" fill="#CE9A90"/>
<path d="M632.77 697.964C629.872 702.744 633.984 709.005 639.51 708.668C643.622 708.466 647.059 704.292 646.452 700.185C645.441 692.847 636.275 692.174 632.77 697.964Z" fill="#CE9A90"/>
<path d="M594.893 737.282C591.995 742.062 596.106 748.323 601.633 747.986C605.744 747.784 609.181 743.61 608.575 739.503C607.631 732.165 598.465 731.492 594.893 737.282Z" fill="#CE9A90"/>
<path d="M598.599 107.387L595.634 109.003L591.725 109.609L587.681 109.003L584.783 106.781L582.761 104.021L581.885 101.059L582.154 97.625L583.637 94.1241L587.074 90.9598L591.86 88.5361L595.634 86.0451L598.397 83.0828L600.958 79.2452L603.183 74.8018L615.516 45.5153L617.471 39.86L618.347 34.1374L617.943 28.1454L616.797 22.3554L616.325 18.1813L616.797 13.3339L619.628 8.75575L622.93 5.86077L628.052 4.91821L632.838 7.5439L636.208 10.5735L637.893 13.7378L638.432 16.0269L641.33 14.0071L644.7 13.1319L648.474 13.6032L652.72 15.9595L655.618 20.5377L655.079 27.0682L650.361 31.5117L645.306 34.272L640.791 37.5036L637.556 41.5431L634.792 47.939L620.908 80.5244L618.549 87.1223L618.684 92.9796L620.032 99.5774L621.245 105.435L620.908 110.349L617.538 114.591L613.494 116.409L608.844 116.813L605.07 116.072L601.498 113.244L599.341 109.676L598.599 107.387Z" fill="#CE9A90"/>
<path d="M305.418 229.246L308.721 230.054L311.956 232.208L314.517 235.44L315.056 239.075L314.719 242.441L313.304 245.202L310.81 247.558L307.305 249.107L302.655 249.039L297.465 247.558L292.949 246.818L288.973 247.087L284.457 248.164L279.807 249.915L250.826 262.908L245.501 265.736L240.918 269.304L237.144 273.95L234.043 278.932L231.55 282.365L227.843 285.597L222.653 287.011L218.272 286.876L213.891 284.048L212.207 278.932L211.802 274.354L212.746 270.92L213.891 268.833L210.387 268.362L207.354 266.746L204.928 263.784L203.377 259.138L204.388 253.887L209.241 249.443H215.711L221.305 250.857L226.899 251.53L232.022 250.79L238.357 247.962L270.775 233.622L276.976 230.39L280.953 226.081L284.39 220.291L287.49 215.175L291.13 211.809L296.454 211.001L300.7 212.482L304.407 215.309L306.564 218.474L307.305 222.917L306.429 227.024L305.418 229.246Z" fill="#CE9A90"/>
<path d="M305.418 38.7158L308.721 39.5237L311.956 41.6781L314.517 44.9097L315.056 48.5452L314.719 51.9115L313.304 54.6718L310.81 57.0282L307.305 58.5767L302.655 58.5094L297.465 57.0282L292.949 56.2876L288.973 56.5569L284.457 57.6341L279.807 59.3846L250.826 72.3784L245.501 75.206L240.918 78.7743L237.144 83.4197L234.044 88.4018L231.55 91.8353L227.843 95.067L222.653 96.4808L218.272 96.3461L213.892 93.5185L212.207 88.4018L211.802 83.8237L212.746 80.3901L213.892 78.303L210.387 77.8317L207.354 76.2159L204.928 73.2536L203.377 68.6082L204.388 63.3568L209.241 58.9133H215.711L221.305 60.3272L226.899 61.0004L232.022 60.2598L238.357 57.4322L270.776 43.0919L276.976 39.8603L280.953 35.5515L284.39 29.7615L287.49 24.6448L291.13 21.2785L296.454 20.4706L300.7 21.9518L304.407 24.7795L306.564 27.9437L307.305 32.3872L306.429 36.494L305.418 38.7158Z" fill="#CE9A90"/>
<path d="M109.896 102.54L110.368 105.906L109.559 109.744L107.47 113.312L104.37 115.197L101.067 116.072L98.0342 115.803L94.8665 114.389L92.1032 111.696L90.4182 107.387L89.8791 102.001L88.8681 97.5578L87.1831 93.9896L84.4872 90.152L81.1173 86.5165L58.202 64.5011L53.6189 60.6636L48.5641 57.7013L42.8352 55.9508L37.039 54.941L32.9951 53.9311L28.6142 51.7093L25.3117 47.4005L23.829 43.2937L24.84 38.177L28.9512 34.7434L33.0625 32.6563L36.5672 32.2524L38.9261 32.5217L38.05 29.0881L38.4544 25.6545L40.2741 22.2882L44.0484 19.1913L49.3054 18.1141L55.2365 20.9417L57.6628 26.9337L58.4042 32.6563L59.8195 38.1097L62.4481 42.5531L67.4355 47.4005L92.8446 72.1089L98.169 76.6197L103.696 78.6394L110.368 79.7166L116.299 80.7265L120.747 82.8136L123.443 87.459L123.713 91.9025L122.432 96.4133L120.343 99.6449L116.434 101.934L112.323 102.675L109.896 102.54Z" fill="#CE9A90"/>
<path d="M107.2 383.286L107.672 386.652L106.863 390.49L104.774 394.058L101.674 395.943L98.3712 396.818L95.3383 396.549L92.1706 395.135L89.4073 392.442L87.7223 388.133L87.1831 382.747L86.1722 378.304L84.4872 374.736L81.7913 370.898L78.4214 367.263L55.5061 345.247L50.923 341.41L45.8681 338.447L40.1393 336.697L34.3431 335.687L30.2992 334.677L25.9183 332.455L22.6158 328.147L21.1331 324.04L22.144 318.923L26.2553 315.49L30.3666 313.402L33.8713 312.998L36.2302 313.268L35.354 309.834L35.7584 306.401L37.5782 303.034L41.3525 299.937L46.6095 298.86L52.5406 301.688L54.9669 307.68L55.7083 313.402L57.1236 318.856L59.7521 323.299L64.7396 328.147L90.1487 352.855L95.4731 357.366L101 359.386L107.672 360.463L113.603 361.473L118.051 363.56L120.747 368.205L121.017 372.649L119.736 377.159L117.647 380.391L113.738 382.68L109.627 383.421L107.2 383.286Z" fill="#CE9A90"/>
<path d="M215.307 493.901L212.004 492.891L208.904 490.468L206.545 487.169L206.141 483.533L206.747 480.167L208.297 477.541L210.926 475.252L214.498 473.906L219.149 474.242L224.271 475.993L228.652 477.003L232.628 476.935L237.279 476.127L241.996 474.646L271.652 463.336L277.111 460.777L281.896 457.478L285.94 453.035L289.31 448.187L292.006 444.956L295.847 441.993L301.105 440.849L305.485 441.186L309.731 444.283L311.079 449.467L311.214 454.045L310.136 457.411L308.855 459.431L312.293 460.104L315.326 461.922L317.55 465.019L318.83 469.731L317.482 474.915L312.427 479.09L305.957 478.753L300.431 477.003L294.904 475.993L289.782 476.464L283.244 478.888L250.084 491.41L243.681 494.305L239.503 498.412L235.728 504L232.359 508.915L228.517 512.079L223.192 512.55L219.081 510.867L215.509 507.838L213.487 504.539L213.015 500.028L214.094 496.056L215.307 493.901Z" fill="#CE9A90"/>
<path d="M109.425 655.347L110.233 658.646L109.829 662.551L108.211 666.321L105.246 668.475L102.146 669.754L99.0452 669.822L95.7427 668.745L92.7772 666.388L90.5531 662.214L89.4747 656.963L87.9919 652.654L85.9026 649.288L82.8023 645.787L79.0954 642.488L54.0233 623.031L49.0359 619.665L43.7114 617.308L37.7804 616.164L31.9168 615.76L27.8055 615.154L23.2224 613.403L19.5155 609.498L17.561 605.594L18.0328 600.41L21.7397 596.505L25.5813 594.014L29.086 593.206L31.445 593.273L30.2318 589.974V586.473L31.6472 582.972L35.0845 579.471L40.2067 577.856L46.4073 580.01L49.4403 585.733L50.7882 591.321L52.8102 596.572L55.9105 600.746L61.3697 605.055L89.2725 626.868L95.0013 630.84L100.73 632.254L107.47 632.658L113.468 632.995L118.119 634.611L121.354 638.92L122.028 643.296L121.219 647.941L119.467 651.375L115.827 654.068L111.851 655.212L109.425 655.347Z" fill="#CE9A90"/>
<path d="M438.394 464.547L437.181 467.712L434.62 470.674L431.115 472.829L427.476 472.963L424.173 472.223L421.612 470.539L419.523 467.779L418.377 464.144L418.984 459.498L421.006 454.516L422.286 450.14L422.488 446.168L421.949 441.522L420.803 436.742L411.166 406.446L408.941 400.858L405.976 395.943L401.73 391.634L397.147 387.931L394.046 385.104L391.283 381.064L390.474 375.746L391.081 371.437L394.383 367.397L399.708 366.32L404.291 366.455L407.593 367.734L409.548 369.148L410.424 365.714L412.379 362.886L415.614 360.799L420.399 359.857L425.521 361.473L429.363 366.724L428.622 373.187L426.532 378.573L425.184 384.027L425.387 389.211L427.408 395.876L437.99 429.673L440.484 436.204L444.325 440.58L449.717 444.754L454.435 448.389L457.333 452.362L457.535 457.748L455.581 461.72L452.346 465.086L448.976 466.971L444.393 467.106L440.416 465.759L438.394 464.547Z" fill="#CE9A90"/>
<path d="M424.241 704.898L423.028 708.063L420.467 711.025L416.962 713.179L413.322 713.314L410.02 712.573L407.459 710.89L405.369 708.13L404.224 704.494L404.83 699.849L406.852 694.867L408.133 690.491L408.335 686.518L407.796 681.873L406.65 677.093L397.012 646.797L394.788 641.209L391.822 636.294L387.576 631.985L382.993 628.282L379.893 625.454L377.13 621.415L376.321 616.096L376.927 611.787L380.23 607.748L385.554 606.671L390.137 606.805L393.44 608.085L395.394 609.498L396.271 606.065L398.225 603.237L401.46 601.15L406.246 600.208L411.368 601.823L415.209 607.075L414.468 613.538L412.379 618.924L411.031 624.377L411.233 629.561L413.255 636.227L423.836 670.024L426.33 676.554L430.172 680.93L435.564 685.105L440.282 688.74L443.18 692.712L443.382 698.098L441.427 702.071L438.192 705.437L434.822 707.322L430.239 707.457L426.263 706.11L424.241 704.898Z" fill="#CE9A90"/>
<path d="M675.838 652.452L676.647 655.818L676.175 659.723L674.49 663.426L671.524 665.58L668.357 666.792H665.256L661.954 665.648L658.988 663.291L656.899 659.117L655.821 653.866L654.473 649.49L652.383 646.123L649.35 642.555L645.711 639.189L620.841 619.463L615.921 616.029L610.596 613.605L604.733 612.394L598.869 611.922L594.758 611.249L590.175 609.431L586.468 605.526L584.581 601.554L585.12 596.37L588.894 592.533L592.803 590.109L596.241 589.301L598.667 589.368L597.454 586.069L597.521 582.568L599.004 579.068L602.441 575.634L607.631 574.085L613.764 576.375L616.797 582.097L618.01 587.752L619.965 593.004L622.998 597.178L628.39 601.621L656.023 623.771L661.752 627.811L667.413 629.292L674.153 629.763L680.151 630.167L684.802 631.85L687.969 636.227L688.576 640.603L687.767 645.181L685.947 648.614L682.308 651.24L678.264 652.385L675.838 652.452Z" fill="#CE9A90"/>
<path d="M1154.26 652.452L1155.07 655.818L1154.59 659.723L1152.91 663.426L1149.94 665.58L1146.78 666.792H1143.68L1140.37 665.648L1137.41 663.291L1135.32 659.117L1134.24 653.866L1132.89 649.49L1130.8 646.123L1127.77 642.555L1124.13 639.189L1099.26 619.463L1094.34 616.029L1089.02 613.605L1083.15 612.394L1077.29 611.922L1073.18 611.249L1068.59 609.431L1064.89 605.526L1063 601.554L1063.54 596.37L1067.31 592.533L1071.22 590.109L1074.66 589.301L1077.09 589.368L1075.87 586.069L1075.94 582.568L1077.42 579.068L1080.86 575.634L1086.05 574.085L1092.18 576.375L1095.22 582.097L1096.43 587.752L1098.38 593.004L1101.42 597.178L1106.81 601.621L1134.44 623.771L1140.17 627.811L1145.83 629.292L1152.57 629.763L1158.57 630.167L1163.22 631.85L1166.39 636.227L1167 640.603L1166.19 645.181L1164.37 648.614L1160.73 651.24L1156.68 652.385L1154.26 652.452Z" fill="#CE9A90"/>
<path d="M901.689 676.959L900.206 680.056L897.443 682.816L893.736 684.634L890.096 684.432L886.861 683.354L884.435 681.469L882.615 678.507L881.874 674.804L882.817 670.226L885.311 665.446L886.996 661.204L887.535 657.3L887.4 652.587L886.659 647.739L879.852 616.703L878.167 610.98L875.606 605.729L871.831 601.083L867.585 597.044L864.755 593.947L862.328 589.638L861.991 584.252L863.002 580.01L866.709 576.307L872.101 575.702L876.617 576.24L879.784 577.856L881.604 579.404L882.75 576.105L885.041 573.412L888.411 571.662L893.264 571.123L898.184 573.21L901.554 578.798L900.273 585.194L897.712 590.311L895.892 595.63L895.555 600.814L897.038 607.614L904.452 642.219L906.339 648.951L909.844 653.731L914.764 658.31L919.145 662.349L921.706 666.59L921.369 671.977L919.077 675.814L915.573 678.844L912.001 680.325L907.485 680.123L903.643 678.44L901.689 676.959Z" fill="#CE9A90"/>
<path d="M1380.11 676.959L1378.63 680.056L1375.86 682.816L1372.15 684.634L1368.52 684.432L1365.28 683.354L1362.85 681.469L1361.03 678.507L1360.29 674.804L1361.24 670.226L1363.73 665.446L1365.42 661.204L1365.95 657.3L1365.82 652.587L1365.08 647.739L1358.27 616.703L1356.59 610.98L1354.02 605.729L1350.25 601.083L1346 597.044L1343.17 593.947L1340.75 589.638L1340.41 584.252L1341.42 580.01L1345.13 576.307L1350.52 575.702L1355.04 576.24L1358.2 577.856L1360.02 579.404L1361.17 576.105L1363.46 573.412L1366.83 571.662L1371.68 571.123L1376.6 573.21L1379.97 578.798L1378.69 585.194L1376.13 590.311L1374.31 595.63L1373.97 600.814L1375.46 607.614L1382.87 642.219L1384.76 648.951L1388.26 653.731L1393.18 658.31L1397.56 662.349L1400.13 666.59L1399.79 671.977L1397.5 675.814L1393.99 678.844L1390.42 680.325L1385.9 680.123L1382.06 678.44L1380.11 676.959Z" fill="#CE9A90"/>
<path d="M1009.26 462.057L1008.31 465.288L1005.95 468.452L1002.65 470.876L999.011 471.28L995.641 470.741L992.946 469.193L990.721 466.635L989.306 463.066L989.576 458.421L991.261 453.304L992.204 448.861L992.137 444.889L991.261 440.243L989.71 435.53L977.983 406.109L975.422 400.656L971.985 395.943L967.536 391.971L962.684 388.605L959.381 386.046L956.348 382.209L955.135 376.957L955.472 372.581L958.505 368.34L963.695 366.859L968.21 366.657L971.648 367.734L973.67 368.946L974.276 365.512L976.096 362.483L979.129 360.193L983.847 358.914L989.036 360.193L993.283 365.176L993.013 371.639L991.328 377.159L990.384 382.68L990.924 387.864L993.417 394.327L1006.36 427.317L1009.32 433.645L1013.5 437.752L1019.16 441.522L1024.15 444.821L1027.32 448.591L1027.93 453.91L1026.24 458.084L1023.21 461.653L1019.97 463.672L1015.46 464.211L1011.41 463.134L1009.26 462.057Z" fill="#CE9A90"/>
<path d="M1487.68 462.057L1486.73 465.288L1484.37 468.452L1481.07 470.876L1477.43 471.28L1474.06 470.741L1471.36 469.193L1469.14 466.635L1467.73 463.066L1468 458.421L1469.68 453.304L1470.62 448.861L1470.56 444.889L1469.68 440.243L1468.13 435.53L1456.4 406.109L1453.84 400.656L1450.4 395.943L1445.96 391.971L1441.1 388.605L1437.8 386.046L1434.77 382.209L1433.55 376.957L1433.89 372.581L1436.92 368.34L1442.11 366.859L1446.63 366.657L1450.07 367.734L1452.09 368.946L1452.7 365.512L1454.52 362.483L1457.55 360.193L1462.27 358.914L1467.46 360.193L1471.7 365.176L1471.43 371.639L1469.75 377.159L1468.8 382.68L1469.34 387.864L1471.84 394.327L1484.78 427.317L1487.74 433.645L1491.92 437.752L1497.58 441.522L1502.57 444.821L1505.74 448.591L1506.34 453.91L1504.66 458.084L1501.63 461.653L1498.39 463.672L1493.88 464.211L1489.83 463.134L1487.68 462.057Z" fill="#CE9A90"/>
<path d="M679.612 371.033L680.555 374.332L680.218 378.236L678.668 382.007L675.77 384.296L672.67 385.575L669.57 385.709L666.267 384.7L663.234 382.411L660.943 378.304L659.729 373.052L658.179 368.811L656.023 365.512L652.855 362.011L649.08 358.847L623.537 339.996L618.482 336.764L613.09 334.475L607.159 333.465L601.295 333.196L597.117 332.725L592.466 331.041L588.692 327.204L586.67 323.366L587.007 318.182L590.646 314.143L594.421 311.584L597.858 310.709H600.284L598.936 307.41L598.869 303.977L600.284 300.408L603.587 296.84L608.642 295.09L614.91 297.177L618.145 302.765L619.56 308.353L621.717 313.537L624.885 317.644L630.479 321.818L658.853 343.025L664.717 346.863L670.446 348.142L677.186 348.344L683.184 348.546L687.834 350.094L691.204 354.336L691.946 358.712L691.272 363.29L689.654 366.791L686.015 369.619L682.038 370.831L679.612 371.033Z" fill="#CE9A90"/>
<path d="M1158.03 371.033L1158.97 374.332L1158.64 378.236L1157.09 382.007L1154.19 384.296L1151.09 385.575L1147.99 385.709L1144.69 384.7L1141.65 382.411L1139.36 378.304L1138.15 373.052L1136.6 368.811L1134.44 365.512L1131.27 362.011L1127.5 358.847L1101.96 339.996L1096.9 336.764L1091.51 334.475L1085.58 333.465L1079.71 333.196L1075.54 332.725L1070.89 331.041L1067.11 327.204L1065.09 323.366L1065.43 318.182L1069.07 314.143L1072.84 311.584L1076.28 310.709H1078.7L1077.36 307.41L1077.29 303.977L1078.7 300.408L1082.01 296.84L1087.06 295.09L1093.33 297.177L1096.56 302.765L1097.98 308.353L1100.14 313.537L1103.3 317.644L1108.9 321.818L1137.27 343.025L1143.14 346.863L1148.87 348.142L1155.6 348.344L1161.6 348.546L1166.25 350.094L1169.62 354.336L1170.37 358.712L1169.69 363.29L1168.07 366.791L1164.43 369.619L1160.46 370.831L1158.03 371.033Z" fill="#CE9A90"/>
<path d="M779.833 218.811L776.53 218.137L773.16 216.05L770.532 212.953L769.791 209.385L770.06 206.019L771.341 203.191L773.767 200.7L777.204 199.084L781.855 198.95L787.112 200.161L791.627 200.767L795.537 200.363L800.052 199.084L804.635 197.199L833.077 183.128L838.267 180.099L842.783 176.328L846.355 171.548L849.253 166.432L851.612 162.931L855.184 159.564L860.306 157.949H864.687L869.203 160.574L871.09 165.624L871.629 170.202L870.82 173.635L869.809 175.79L873.314 176.126L876.414 177.607L878.975 180.502L880.66 185.081L879.851 190.332L875.201 194.977L868.731 195.247L863.069 194.035L857.475 193.564L852.353 194.506L846.085 197.536L814.273 213.155L808.207 216.589L804.433 221.1L801.131 227.024L798.232 232.208L794.728 235.709L789.471 236.719L785.225 235.44L781.383 232.747L779.091 229.65L778.215 225.206L778.889 221.1L779.833 218.811Z" fill="#CE9A90"/>
<path d="M1258.25 218.811L1254.95 218.137L1251.58 216.05L1248.95 212.953L1248.21 209.385L1248.48 206.019L1249.76 203.191L1252.19 200.7L1255.62 199.084L1260.27 198.95L1265.53 200.161L1270.05 200.767L1273.96 200.363L1278.47 199.084L1283.05 197.199L1311.5 183.128L1316.69 180.099L1321.2 176.328L1324.77 171.548L1327.67 166.432L1330.03 162.931L1333.6 159.564L1338.73 157.949H1343.11L1347.62 160.574L1349.51 165.624L1350.05 170.202L1349.24 173.635L1348.23 175.79L1351.73 176.126L1354.83 177.607L1357.39 180.502L1359.08 185.081L1358.27 190.332L1353.62 194.977L1347.15 195.247L1341.49 194.035L1335.89 193.564L1330.77 194.506L1324.5 197.536L1292.69 213.155L1286.63 216.589L1282.85 221.1L1279.55 227.024L1276.65 232.208L1273.15 235.709L1267.89 236.719L1263.64 235.44L1259.8 232.747L1257.51 229.65L1256.63 225.206L1257.31 221.1L1258.25 218.811Z" fill="#CE9A90"/>
<path d="M598.599 108.061L595.634 109.677L591.725 110.35L587.681 109.677L584.85 107.455L582.761 104.762L581.952 101.8L582.154 98.299L583.637 94.798L587.074 91.6338L591.86 89.2101L595.701 86.719L598.397 83.824L601.026 79.9192L603.25 75.4757L615.516 46.1893L617.471 40.5339L618.347 34.8113L617.943 28.8193L616.797 23.0294L616.258 18.8552L616.797 14.0078L619.628 9.4297L622.93 6.53472L628.052 5.59216L632.77 8.21785L636.14 11.2475L637.825 14.4118L638.432 16.7008L641.262 14.6811L644.7 13.7385L648.474 14.2771L652.72 16.6335L655.551 21.1443L655.079 27.6748L650.361 32.1183L645.306 34.8786L640.723 38.1776L637.556 42.2171L634.792 48.613L620.908 81.1984L618.549 87.7962L618.684 93.6535L620.099 100.251L621.313 106.109L620.908 111.023L617.606 115.265L613.562 117.083L608.844 117.554L605.137 116.746L601.565 113.918L599.408 110.35L598.599 108.061Z" fill="#CE9A90"/>
<path d="M435.968 185.552L434.755 188.716L432.194 191.746L428.756 193.9L425.05 194.035L421.747 193.294L419.186 191.544L417.097 188.783L415.951 185.215L416.557 180.57L418.579 175.588L419.86 171.211L419.995 167.239L419.456 162.594L418.31 157.746L408.604 127.517L406.448 121.997L403.415 117.015L399.169 112.706L394.586 109.07L391.485 106.243L388.722 102.203L387.846 96.8845L388.52 92.5083L391.822 88.5362L397.079 87.3916L401.662 87.5263L404.965 88.8728L406.92 90.2193L407.796 86.7857L409.75 83.958L412.985 81.871L417.771 80.9284L422.893 82.4769L426.735 87.7956L426.061 94.2588L423.971 99.6448L422.623 105.098L422.825 110.215L424.847 116.88L435.496 150.677L437.99 157.208L441.899 161.584L447.224 165.758L451.941 169.394L454.907 173.366L455.109 178.752L453.155 182.724L449.919 186.09L446.55 187.975L441.966 188.11L437.99 186.831L435.968 185.552Z" fill="#CE9A90"/>
<path d="M436.44 186.023L435.227 189.255L432.666 192.217L429.161 194.371L425.521 194.506L422.219 193.766L419.658 192.082L417.568 189.322L416.423 185.687L416.962 181.041L419.051 176.059L420.264 171.75L420.467 167.778L419.927 163.065L418.714 158.285L409.076 128.056L406.852 122.468L403.819 117.553L399.573 113.245L394.99 109.609L391.89 106.781L389.126 102.742L388.25 97.4232L388.924 93.047L392.227 89.0075L397.484 87.9303L402.067 88.065L405.369 89.3442L407.324 90.758L408.2 87.3244L410.155 84.4967L413.39 82.4097L418.175 81.3998L423.297 83.0156L427.139 88.3343L426.465 94.7302L424.376 100.116L423.028 105.57L423.23 110.754L425.319 117.419L435.901 151.216L438.462 157.679L442.303 162.123L447.695 166.23L452.413 169.865L455.311 173.837L455.513 179.223L453.626 183.263L450.391 186.629L447.021 188.447L442.438 188.649L438.462 187.302L436.44 186.023Z" fill="#CE9A90"/>
<path d="M964.841 87.7956L966.997 90.4212L968.21 94.1915L968.278 98.231L966.526 101.463L964.167 103.886L961.336 105.233L957.899 105.569L954.259 104.694L950.552 101.799L947.317 97.4904L944.217 94.1241L940.914 91.9024L936.668 90.0173L931.95 88.5361L901.015 81.1977L895.084 80.1878H889.287L883.424 81.6016L877.897 83.6887L873.921 84.8333L869.001 85.1026L864.013 83.0828L860.643 80.3225L858.891 75.4077L860.711 70.291L863.137 66.5208L865.968 64.2991L868.124 63.3565L865.698 60.8655L864.215 57.7012L864.148 53.8637L865.765 49.2856L869.742 45.7173L876.28 45.1787L881.469 49.0836L885.041 53.6617L889.018 57.5666L893.533 60.1249L900.273 61.808L934.714 70.1564L941.588 71.3682L947.385 70.3583L953.72 67.8673L959.247 65.7129L964.167 65.3089L968.884 67.8673L971.311 71.6375L972.524 76.1483L972.389 79.9858L970.165 83.958L966.997 86.651L964.841 87.7956Z" fill="#CE9A90"/>
<path d="M1443.26 87.7956L1445.42 90.4212L1446.63 94.1915L1446.7 98.231L1444.94 101.463L1442.59 103.886L1439.76 105.233L1436.32 105.569L1432.68 104.694L1428.97 101.799L1425.74 97.4904L1422.64 94.1241L1419.33 91.9024L1415.09 90.0173L1410.37 88.5361L1379.43 81.1977L1373.5 80.1878H1367.71L1361.84 81.6016L1356.32 83.6887L1352.34 84.8333L1347.42 85.1026L1342.43 83.0828L1339.06 80.3225L1337.31 75.4077L1339.13 70.291L1341.56 66.5208L1344.39 64.2991L1346.54 63.3565L1344.12 60.8655L1342.63 57.7012L1342.57 53.8637L1344.18 49.2856L1348.16 45.7173L1354.7 45.1787L1359.89 49.0836L1363.46 53.6617L1367.44 57.5666L1371.95 60.1249L1378.69 61.808L1413.13 70.1564L1420.01 71.3682L1425.8 70.3583L1432.14 67.8673L1437.67 65.7129L1442.59 65.3089L1447.3 67.8673L1449.73 71.6375L1450.94 76.1483L1450.81 79.9858L1448.58 83.958L1445.42 86.651L1443.26 87.7956Z" fill="#CE9A90"/>
<path d="M863.474 446.706L866.776 447.514L870.012 449.668L872.573 452.9L873.112 456.536L872.775 459.902L871.36 462.662L868.866 465.019L865.361 466.567L860.711 466.5L855.521 465.019L851.005 464.278L847.029 464.547L842.513 465.625L837.863 467.375L808.882 480.369L803.557 483.196L798.974 486.765L795.2 491.41L792.099 496.392L789.606 499.826L785.899 503.057L780.709 504.471L776.328 504.337L771.947 501.509L770.262 496.392L769.858 491.814L770.802 488.38L771.947 486.293L768.443 485.822L765.41 484.206L762.983 481.244L761.433 476.599L762.444 471.347L767.297 466.904H773.767L779.361 468.318L784.955 468.991L790.078 468.25L796.413 465.423L828.831 451.082L835.032 447.851L839.008 443.542L842.446 437.752L845.546 432.635L849.186 429.269L854.51 428.461L858.756 429.942L862.463 432.77L864.62 435.934L865.361 440.378L864.485 444.484L863.474 446.706Z" fill="#CE9A90"/>
<path d="M1341.89 446.706L1345.2 447.514L1348.43 449.668L1350.99 452.9L1351.53 456.536L1351.19 459.902L1349.78 462.662L1347.29 465.019L1343.78 466.567L1339.13 466.5L1333.94 465.019L1329.42 464.278L1325.45 464.547L1320.93 465.625L1316.28 467.375L1287.3 480.369L1281.98 483.196L1277.39 486.765L1273.62 491.41L1270.52 496.392L1268.02 499.826L1264.32 503.057L1259.13 504.471L1254.75 504.337L1250.37 501.509L1248.68 496.392L1248.28 491.814L1249.22 488.38L1250.37 486.293L1246.86 485.822L1243.83 484.206L1241.4 481.244L1239.85 476.599L1240.86 471.347L1245.72 466.904H1252.19L1257.78 468.318L1263.37 468.991L1268.5 468.25L1274.83 465.423L1307.25 451.082L1313.45 447.851L1317.43 443.542L1320.86 437.752L1323.97 432.635L1327.6 429.269L1332.93 428.461L1337.18 429.942L1340.88 432.77L1343.04 435.934L1343.78 440.378L1342.9 444.484L1341.89 446.706Z" fill="#CE9A90"/>
<path d="M362.032 674.871C355.495 677.295 354.147 686.788 361.089 689.615C364.054 690.827 367.694 690.019 369.851 687.663C372.007 685.307 372.479 681.604 371.064 678.776C369.514 675.747 365.402 673.659 362.032 674.871Z" fill="#CE9A90"/>
<path d="M127.42 256.445C116.501 260.485 114.21 276.441 125.87 281.153C130.79 283.173 136.923 281.759 140.495 277.854C144.067 273.95 144.943 267.756 142.517 263.043C139.888 257.859 133.081 254.358 127.42 256.445Z" fill="#CE9A90"/>
<path d="M264.238 374.264C253.319 378.304 251.028 394.26 262.688 398.973C267.608 400.992 273.741 399.579 277.313 395.674C280.885 391.769 281.761 385.575 279.335 380.862C276.707 375.678 269.899 372.177 264.238 374.264Z" fill="#CE9A90"/>
<path d="M119.399 309.295C112.862 311.719 111.514 321.212 118.456 324.04C121.421 325.252 125.061 324.444 127.218 322.087C129.374 319.731 129.846 316.028 128.431 313.2C126.881 310.171 122.769 308.084 119.399 309.295Z" fill="#CE9A90"/>
<path d="M217.127 404.897C210.589 407.321 209.241 416.814 216.183 419.641C219.149 420.853 222.788 420.045 224.945 417.689C227.102 415.333 227.573 411.63 226.158 408.802C224.608 405.772 220.497 403.685 217.127 404.897Z" fill="#CE9A90"/>
<path d="M382.252 437.213C375.714 439.637 374.366 449.13 381.308 451.958C384.274 453.169 387.913 452.361 390.07 450.005C392.227 447.649 392.699 443.946 391.283 441.118C389.733 438.089 385.622 436.001 382.252 437.213Z" fill="#CE9A90"/>
<path d="M194.885 345.853C190.302 347.536 189.359 354.201 194.211 356.221C196.301 357.029 198.862 356.49 200.344 354.875C201.827 353.259 202.232 350.633 201.221 348.681C200.075 346.459 197.244 344.978 194.885 345.853Z" fill="#CE9A90"/>
<path d="M429.363 241.634C418.445 245.673 416.153 261.629 427.813 266.342C432.733 268.362 438.866 266.948 442.438 263.043C446.01 259.138 446.887 252.944 444.46 248.231C441.832 243.047 435.025 239.546 429.363 241.634Z" fill="#CE9A90"/>
<path d="M403.145 276.979C396.608 279.403 395.26 288.896 402.202 291.724C405.167 292.935 408.807 292.127 410.963 289.771C413.12 287.415 413.592 283.712 412.177 280.884C410.626 277.855 406.515 275.767 403.145 276.979Z" fill="#CE9A90"/>
<path d="M368.772 251.598C364.189 253.281 363.246 259.946 368.098 261.966C370.188 262.774 372.749 262.235 374.231 260.619C375.714 259.003 376.119 256.378 375.108 254.425C373.962 252.204 371.131 250.722 368.772 251.598Z" fill="#CE9A90"/>
<path d="M451.672 390.288C447.089 391.971 446.145 398.636 450.998 400.656C453.087 401.464 455.648 400.925 457.131 399.309C458.614 397.693 459.018 395.068 458.007 393.115C456.862 390.894 454.031 389.412 451.672 390.288Z" fill="#CE9A90"/>
<path d="M15.6064 466.365C11.0233 468.048 10.0798 474.714 14.9324 476.733C17.0218 477.541 19.5829 477.003 21.0657 475.387C22.5484 473.771 22.9528 471.145 21.9418 469.193C20.7961 466.971 17.9653 465.49 15.6064 466.365Z" fill="#CE9A90"/>
<path d="M539.896 429.471C528.977 433.51 526.686 449.467 538.346 454.179C543.266 456.199 549.399 454.785 552.971 450.88C556.543 446.976 557.419 440.782 554.993 436.069C552.364 430.885 545.557 427.384 539.896 429.471Z" fill="#CE9A90"/>
<path d="M692.889 256.445C681.971 260.485 679.68 276.441 691.339 281.153C696.259 283.173 702.393 281.759 705.965 277.854C709.537 273.95 710.413 267.756 707.987 263.043C705.358 257.859 698.551 254.358 692.889 256.445Z" fill="#CE9A90"/>
<path d="M1171.31 256.445C1160.39 260.485 1158.1 276.441 1169.76 281.153C1174.68 283.173 1180.81 281.759 1184.38 277.854C1187.96 273.95 1188.83 267.756 1186.41 263.043C1183.78 257.859 1176.97 254.358 1171.31 256.445Z" fill="#CE9A90"/>
<path d="M874.864 350.7C863.946 354.74 861.654 370.696 873.314 375.409C878.234 377.429 884.367 376.015 887.939 372.11C891.511 368.205 892.388 362.011 889.961 357.298C887.333 352.114 880.526 348.613 874.864 350.7Z" fill="#CE9A90"/>
<path d="M1353.28 350.7C1342.36 354.74 1340.07 370.696 1351.73 375.409C1356.65 377.429 1362.79 376.015 1366.36 372.11C1369.93 368.205 1370.81 362.011 1368.38 357.298C1365.75 352.114 1358.94 348.613 1353.28 350.7Z" fill="#CE9A90"/>
<path d="M684.869 309.295C678.331 311.719 676.984 321.212 683.925 324.04C686.891 325.252 690.531 324.444 692.687 322.087C694.844 319.731 695.316 316.028 693.9 313.2C692.35 310.171 688.239 308.084 684.869 309.295Z" fill="#CE9A90"/>
<path d="M1163.29 309.295C1156.75 311.719 1155.4 321.212 1162.34 324.04C1165.31 325.252 1168.95 324.444 1171.11 322.087C1173.26 319.731 1173.74 316.028 1172.32 313.2C1170.77 310.171 1166.66 308.084 1163.29 309.295Z" fill="#CE9A90"/>
<path d="M827.753 381.333C821.215 383.757 819.867 393.25 826.809 396.078C829.775 397.29 833.414 396.482 835.571 394.125C837.728 391.769 838.2 388.066 836.784 385.238C835.234 382.209 831.123 380.122 827.753 381.333Z" fill="#CE9A90"/>
<path d="M1306.17 381.333C1299.63 383.757 1298.29 393.25 1305.23 396.078C1308.19 397.29 1311.83 396.482 1313.99 394.125C1316.15 391.769 1316.62 388.066 1315.2 385.238C1313.65 382.209 1309.54 380.122 1306.17 381.333Z" fill="#CE9A90"/>
<path d="M947.721 437.213C941.184 439.637 939.836 449.13 946.778 451.958C949.743 453.169 953.383 452.361 955.54 450.005C957.696 447.649 958.168 443.946 956.753 441.118C955.203 438.089 951.091 436.001 947.721 437.213Z" fill="#CE9A90"/>
<path d="M1426.14 437.213C1419.6 439.637 1418.25 449.13 1425.2 451.958C1428.16 453.169 1431.8 452.361 1433.96 450.005C1436.12 447.649 1436.59 443.946 1435.17 441.118C1433.62 438.089 1429.51 436.001 1426.14 437.213Z" fill="#CE9A90"/>
<path d="M779.226 370.09C774.643 371.773 773.7 378.438 778.552 380.458C780.642 381.266 783.203 380.728 784.686 379.112C786.168 377.496 786.573 374.87 785.562 372.918C784.416 370.696 781.585 369.215 779.226 370.09Z" fill="#CE9A90"/>
<path d="M1257.65 370.09C1253.06 371.773 1252.12 378.438 1256.97 380.458C1259.06 381.266 1261.62 380.728 1263.11 379.112C1264.59 377.496 1264.99 374.87 1263.98 372.918C1262.84 370.696 1260 369.215 1257.65 370.09Z" fill="#CE9A90"/>
<path d="M994.833 241.634C983.914 245.673 981.623 261.629 993.282 266.342C998.203 268.362 1004.34 266.948 1007.91 263.043C1011.48 259.138 1012.36 252.944 1009.93 248.231C1007.3 243.047 1000.49 239.546 994.833 241.634Z" fill="#CE9A90"/>
<path d="M968.615 276.979C962.077 279.403 960.729 288.896 967.671 291.724C970.637 292.935 974.276 292.127 976.433 289.771C978.59 287.415 979.061 283.712 977.646 280.884C976.096 277.855 971.985 275.767 968.615 276.979Z" fill="#CE9A90"/>
<path d="M1447.03 276.979C1440.5 279.403 1439.15 288.896 1446.09 291.724C1449.06 292.935 1452.7 292.127 1454.85 289.771C1457.01 287.415 1457.48 283.712 1456.07 280.884C1454.52 277.855 1450.4 275.767 1447.03 276.979Z" fill="#CE9A90"/>
<path d="M934.242 251.598C929.659 253.281 928.715 259.946 933.568 261.966C935.657 262.774 938.218 262.235 939.701 260.619C941.184 259.003 941.588 256.378 940.577 254.425C939.431 252.204 936.601 250.722 934.242 251.598Z" fill="#CE9A90"/>
<path d="M1412.66 251.598C1408.08 253.281 1407.13 259.946 1411.99 261.966C1414.08 262.774 1416.64 262.235 1418.12 260.619C1419.6 259.003 1420.01 256.378 1419 254.425C1417.85 252.204 1415.02 250.722 1412.66 251.598Z" fill="#CE9A90"/>
<path d="M1017.14 390.288C1012.56 391.971 1011.61 398.636 1016.47 400.656C1018.56 401.464 1021.12 400.925 1022.6 399.309C1024.08 397.693 1024.49 395.068 1023.48 393.115C1022.33 390.894 1019.5 389.412 1017.14 390.288Z" fill="#CE9A90"/>
<path d="M533.897 338.918C527.36 341.342 526.012 350.835 532.954 353.663C535.919 354.875 539.559 354.067 541.716 351.71C543.872 349.354 544.344 345.651 542.929 342.823C541.379 339.794 537.267 337.707 533.897 338.918Z" fill="#CE9A90"/>
<path d="M485.371 327.675C480.788 329.358 479.844 336.024 484.697 338.043C486.786 338.851 489.347 338.313 490.83 336.697C492.313 335.081 492.717 332.455 491.706 330.503C490.561 328.281 487.73 326.8 485.371 327.675Z" fill="#CE9A90"/>
<path d="M581.076 466.365C576.493 468.048 575.549 474.714 580.402 476.733C582.491 477.541 585.053 477.003 586.535 475.387C588.018 473.771 588.422 471.145 587.411 469.193C586.266 466.971 583.435 465.49 581.076 466.365Z" fill="#CE9A90"/>
<path d="M127.42 -22.9544C116.501 -18.9149 114.21 -2.95886 125.87 1.7539C130.79 3.77366 136.923 2.35983 140.495 -1.54503C144.067 -5.44989 144.943 -11.6438 142.517 -16.3566C139.888 -21.5406 133.081 -25.0415 127.42 -22.9544Z" fill="#CE9A90"/>
<path d="M248.736 152.091C237.818 156.131 235.526 172.087 247.186 176.799C252.106 178.819 258.239 177.405 261.812 173.5C265.384 169.596 266.26 163.402 263.833 158.689C261.205 153.505 254.398 150.004 248.736 152.091Z" fill="#CE9A90"/>
<path d="M119.399 29.8959C112.862 32.3196 111.514 41.8125 118.456 44.6401C121.421 45.852 125.061 45.0441 127.218 42.6877C129.374 40.3313 129.846 36.6284 128.431 33.8008C126.881 30.7711 122.769 28.6841 119.399 29.8959Z" fill="#CE9A90"/>
<path d="M201.625 182.724C195.087 185.148 193.739 194.641 200.681 197.468C203.647 198.68 207.286 197.872 209.443 195.516C211.6 193.159 212.072 189.457 210.656 186.629C209.106 183.599 204.995 181.512 201.625 182.724Z" fill="#CE9A90"/>
<path d="M382.252 157.814C375.714 160.237 374.366 169.73 381.308 172.558C384.274 173.77 387.913 172.962 390.07 170.605C392.227 168.249 392.699 164.546 391.283 161.719C389.733 158.689 385.622 156.602 382.252 157.814Z" fill="#CE9A90"/>
<path d="M168.6 114.254C164.017 115.937 163.073 122.603 167.926 124.622C170.015 125.43 172.576 124.892 174.059 123.276C175.542 121.66 175.946 119.034 174.935 117.082C173.79 114.86 170.959 113.379 168.6 114.254Z" fill="#CE9A90"/>
<path d="M403.145 -2.42022C396.608 0.00349047 395.26 9.49634 402.202 12.324C405.167 13.5359 408.807 12.728 410.963 10.3716C413.12 8.01519 413.592 4.3123 412.177 1.48465C410.626 -1.54499 406.515 -3.63207 403.145 -2.42022Z" fill="#CE9A90"/>
<path d="M451.672 110.888C447.089 112.571 446.145 119.236 450.998 121.256C453.087 122.064 455.648 121.525 457.131 119.91C458.614 118.294 459.018 115.668 458.007 113.716C456.862 111.494 454.031 110.013 451.672 110.888Z" fill="#CE9A90"/>
<path d="M15.6064 186.966C11.0233 188.649 10.0798 195.314 14.9324 197.334C17.0218 198.142 19.5829 197.603 21.0657 195.987C22.5484 194.371 22.9528 191.746 21.9418 189.793C20.7961 187.571 17.9653 186.09 15.6064 186.966Z" fill="#CE9A90"/>
<path d="M539.896 150.071C528.977 154.111 526.686 170.067 538.346 174.78C543.266 176.799 549.399 175.386 552.971 171.481C556.543 167.576 557.419 161.382 554.993 156.669C552.364 151.485 545.557 147.984 539.896 150.071Z" fill="#CE9A90"/>
<path d="M692.889 -22.9544C681.971 -18.9149 679.68 -2.95886 691.339 1.7539C696.259 3.77366 702.393 2.35983 705.965 -1.54503C709.537 -5.44989 710.413 -11.6438 707.987 -16.3566C705.358 -21.5406 698.551 -25.0415 692.889 -22.9544Z" fill="#CE9A90"/>
<path d="M1171.31 -22.9544C1160.39 -18.9149 1158.1 -2.95886 1169.76 1.7539C1174.68 3.77366 1180.81 2.35983 1184.38 -1.54503C1187.96 -5.44989 1188.83 -11.6438 1186.41 -16.3566C1183.78 -21.5406 1176.97 -25.0415 1171.31 -22.9544Z" fill="#CE9A90"/>
<path d="M829.707 94.8647C818.789 98.9042 816.497 114.86 828.157 119.573C833.077 121.593 839.21 120.179 842.783 116.274C846.355 112.369 847.231 106.175 844.805 101.463C842.176 96.2785 835.369 92.7776 829.707 94.8647Z" fill="#CE9A90"/>
<path d="M1308.13 94.8647C1297.21 98.9042 1294.92 114.86 1306.58 119.573C1311.5 121.593 1317.63 120.179 1321.2 116.274C1324.77 112.369 1325.65 106.175 1323.22 101.463C1320.6 96.2785 1313.79 92.7776 1308.13 94.8647Z" fill="#CE9A90"/>
<path d="M734.07 54.8062C727.532 57.2299 726.184 66.7227 733.126 69.5504C736.091 70.7623 739.731 69.9544 741.888 67.598C744.044 65.2416 744.516 61.5387 743.101 58.7111C741.551 55.6814 737.439 53.5943 734.07 54.8062Z" fill="#CE9A90"/>
<path d="M1212.49 54.8062C1205.95 57.2299 1204.6 66.7227 1211.55 69.5504C1214.51 70.7623 1218.15 69.9544 1220.31 67.598C1222.46 65.2416 1222.94 61.5387 1221.52 58.7111C1219.97 55.6814 1215.86 53.5943 1212.49 54.8062Z" fill="#CE9A90"/>
<path d="M782.596 125.498C776.059 127.921 774.711 137.414 781.653 140.242C784.618 141.454 788.258 140.646 790.414 138.289C792.571 135.933 793.043 132.23 791.627 129.402C790.077 126.373 785.966 124.286 782.596 125.498Z" fill="#CE9A90"/>
<path d="M1261.02 125.498C1254.48 127.921 1253.13 137.414 1260.07 140.242C1263.04 141.454 1266.68 140.646 1268.83 138.289C1270.99 135.933 1271.46 132.23 1270.05 129.402C1268.5 126.373 1264.39 124.286 1261.02 125.498Z" fill="#CE9A90"/>
<path d="M947.721 157.814C941.184 160.237 939.836 169.73 946.778 172.558C949.743 173.77 953.383 172.962 955.54 170.605C957.696 168.249 958.168 164.546 956.753 161.719C955.203 158.689 951.091 156.602 947.721 157.814Z" fill="#CE9A90"/>
<path d="M1426.14 157.814C1419.6 160.237 1418.25 169.73 1425.2 172.558C1428.16 173.77 1431.8 172.962 1433.96 170.605C1436.12 168.249 1436.59 164.546 1435.17 161.719C1433.62 158.689 1429.51 156.602 1426.14 157.814Z" fill="#CE9A90"/>
<path d="M734.07 114.254C729.487 115.937 728.543 122.603 733.396 124.622C735.485 125.43 738.046 124.892 739.529 123.276C741.012 121.66 741.416 119.034 740.405 117.082C739.259 114.86 736.429 113.379 734.07 114.254Z" fill="#CE9A90"/>
<path d="M1212.49 114.254C1207.91 115.937 1206.96 122.603 1211.82 124.622C1213.9 125.43 1216.47 124.892 1217.95 123.276C1219.43 121.66 1219.84 119.034 1218.82 117.082C1217.68 114.86 1214.85 113.379 1212.49 114.254Z" fill="#CE9A90"/>
<path d="M968.615 -2.42025C962.077 0.00345995 960.729 9.49631 967.671 12.324C970.637 13.5358 974.276 12.7279 976.433 10.3715C978.59 8.01516 979.061 4.31227 977.646 1.48462C976.096 -1.54502 971.985 -3.6321 968.615 -2.42025Z" fill="#CE9A90"/>
<path d="M1447.03 -2.42025C1440.5 0.00345995 1439.15 9.49631 1446.09 12.324C1449.06 13.5358 1452.7 12.7279 1454.85 10.3715C1457.01 8.01516 1457.48 4.31227 1456.07 1.48462C1454.52 -1.54502 1450.4 -3.6321 1447.03 -2.42025Z" fill="#CE9A90"/>
<path d="M1017.14 110.888C1012.56 112.571 1011.61 119.236 1016.47 121.256C1018.56 122.064 1021.12 121.525 1022.6 119.91C1024.08 118.294 1024.49 115.668 1023.48 113.716C1022.33 111.494 1019.5 110.013 1017.14 110.888Z" fill="#CE9A90"/>
<path d="M533.897 59.519C527.36 61.9427 526.012 71.4355 532.954 74.2632C535.919 75.475 539.559 74.6671 541.716 72.3107C543.872 69.9544 544.344 66.2515 542.929 63.4238C541.379 60.3942 537.267 58.3071 533.897 59.519Z" fill="#CE9A90"/>
<path d="M485.371 48.2756C480.788 49.9588 479.844 56.6239 484.697 58.6437C486.786 59.4516 489.347 58.913 490.83 57.2972C492.313 55.6814 492.717 53.0557 491.706 51.1033C490.561 48.8815 487.73 47.4004 485.371 48.2756Z" fill="#CE9A90"/>
<path d="M581.076 186.966C576.493 188.649 575.549 195.314 580.402 197.334C582.491 198.142 585.053 197.603 586.535 195.987C588.018 194.371 588.422 191.746 587.411 189.793C586.266 187.571 583.435 186.09 581.076 186.966Z" fill="#CE9A90"/>
<path d="M127.42 533.825C116.501 537.864 114.21 553.821 125.87 558.533C130.79 560.553 136.923 559.139 140.495 555.234C144.067 551.33 144.943 545.136 142.517 540.423C139.888 535.239 133.081 531.738 127.42 533.825Z" fill="#CE9A90"/>
<path d="M250.758 667.802C239.84 671.842 237.548 687.798 249.208 692.51C254.128 694.53 260.261 693.116 263.833 689.211C267.405 685.307 268.282 679.113 265.855 674.4C263.227 669.216 256.42 665.715 250.758 667.802Z" fill="#CE9A90"/>
<path d="M119.399 586.675C112.862 589.099 111.514 598.592 118.456 601.419C121.421 602.631 125.061 601.823 127.218 599.467C129.374 597.111 129.846 593.408 128.431 590.58C126.881 587.55 122.769 585.463 119.399 586.675Z" fill="#CE9A90"/>
<path d="M203.647 698.435C197.109 700.859 195.761 710.352 202.703 713.179C205.669 714.391 209.308 713.583 211.465 711.227C213.622 708.87 214.094 705.168 212.678 702.34C211.128 699.31 207.017 697.223 203.647 698.435Z" fill="#CE9A90"/>
<path d="M194.885 614.481C190.302 616.164 189.359 622.829 194.211 624.849C196.301 625.657 198.862 625.118 200.344 623.502C201.827 621.886 202.232 619.261 201.221 617.308C200.075 615.087 197.244 613.605 194.885 614.481Z" fill="#CE9A90"/>
<path d="M429.363 519.013C418.445 523.053 416.153 539.009 427.813 543.722C432.733 545.741 438.866 544.328 442.438 540.423C446.01 536.518 446.887 530.324 444.46 525.611C441.832 520.427 435.025 516.926 429.363 519.013Z" fill="#CE9A90"/>
<path d="M403.145 554.359C396.608 556.783 395.26 566.276 402.202 569.103C405.167 570.315 408.807 569.507 410.963 567.151C413.12 564.794 413.592 561.091 412.177 558.264C410.626 555.234 406.515 553.147 403.145 554.359Z" fill="#CE9A90"/>
<path d="M368.772 528.978C364.189 530.661 363.246 537.326 368.098 539.346C370.188 540.154 372.749 539.615 374.231 537.999C375.714 536.383 376.119 533.758 375.108 531.805C373.962 529.584 371.131 528.102 368.772 528.978Z" fill="#CE9A90"/>
<path d="M451.672 648.816C447.089 650.5 446.145 657.165 450.998 659.184C453.087 659.992 455.648 659.454 457.131 657.838C458.614 656.222 459.018 653.597 458.007 651.644C456.862 649.422 454.031 647.941 451.672 648.816Z" fill="#CE9A90"/>
<path d="M15.6064 743.745C11.0233 745.428 10.0798 752.093 14.9324 754.113C17.0218 754.921 19.5829 754.382 21.0657 752.766C22.5484 751.151 22.9528 748.525 21.9418 746.573C20.7961 744.351 17.9653 742.87 15.6064 743.745Z" fill="#CE9A90"/>
<path d="M530.46 672.515C519.542 676.554 517.25 692.51 528.91 697.223C533.83 699.243 539.963 697.829 543.535 693.924C547.107 690.019 547.984 683.826 545.557 679.113C542.929 673.929 536.122 670.428 530.46 672.515Z" fill="#CE9A90"/>
<path d="M692.889 533.825C681.971 537.864 679.68 553.821 691.339 558.533C696.259 560.553 702.393 559.139 705.965 555.234C709.537 551.33 710.413 545.136 707.987 540.423C705.358 535.239 698.551 531.738 692.889 533.825Z" fill="#CE9A90"/>
<path d="M1171.31 533.825C1160.39 537.864 1158.1 553.821 1169.76 558.533C1174.68 560.553 1180.81 559.139 1184.38 555.234C1187.96 551.33 1188.83 545.136 1186.41 540.423C1183.78 535.239 1176.97 531.738 1171.31 533.825Z" fill="#CE9A90"/>
<path d="M799.378 644.912C788.46 648.951 786.168 664.907 797.828 669.62C802.748 671.64 808.881 670.226 812.453 666.321C816.026 662.416 816.902 656.222 814.475 651.509C811.847 646.325 805.04 642.824 799.378 644.912Z" fill="#CE9A90"/>
<path d="M1277.8 644.912C1266.88 648.951 1264.59 664.907 1276.25 669.62C1281.17 671.64 1287.3 670.226 1290.87 666.321C1294.44 662.416 1295.32 656.222 1292.89 651.509C1290.27 646.325 1283.46 642.824 1277.8 644.912Z" fill="#CE9A90"/>
<path d="M684.869 586.675C678.331 589.099 676.984 598.592 683.925 601.419C686.891 602.631 690.531 601.823 692.687 599.467C694.844 597.111 695.316 593.408 693.9 590.58C692.35 587.55 688.239 585.463 684.869 586.675Z" fill="#CE9A90"/>
<path d="M1163.29 586.675C1156.75 589.099 1155.4 598.592 1162.34 601.419C1165.31 602.631 1168.95 601.823 1171.11 599.467C1173.26 597.111 1173.74 593.408 1172.32 590.58C1170.77 587.55 1166.66 585.463 1163.29 586.675Z" fill="#CE9A90"/>
<path d="M733.396 669.485C726.858 671.909 725.51 681.402 732.452 684.23C735.418 685.441 739.057 684.633 741.214 682.277C743.371 679.921 743.842 676.218 742.427 673.39C740.877 670.361 736.766 668.273 733.396 669.485Z" fill="#CE9A90"/>
<path d="M1211.82 669.485C1205.28 671.909 1203.93 681.402 1210.87 684.23C1213.84 685.441 1217.48 684.633 1219.63 682.277C1221.79 679.921 1222.26 676.218 1220.85 673.39C1219.3 670.361 1215.18 668.273 1211.82 669.485Z" fill="#CE9A90"/>
<path d="M947.721 714.593C941.184 717.017 939.836 726.51 946.778 729.338C949.743 730.549 953.383 729.741 955.54 727.385C957.696 725.029 958.168 721.326 956.753 718.498C955.203 715.469 951.091 713.381 947.721 714.593Z" fill="#CE9A90"/>
<path d="M1426.14 714.593C1419.6 717.017 1418.25 726.51 1425.2 729.338C1428.16 730.549 1431.8 729.741 1433.96 727.385C1436.12 725.029 1436.59 721.326 1435.17 718.498C1433.62 715.469 1429.51 713.381 1426.14 714.593Z" fill="#CE9A90"/>
<path d="M712.502 729.607C707.919 731.29 706.976 737.955 711.828 739.975C713.918 740.783 716.479 740.244 717.962 738.628C719.444 737.012 719.849 734.387 718.838 732.434C717.692 730.213 714.861 728.731 712.502 729.607Z" fill="#CE9A90"/>
<path d="M1190.92 729.607C1186.34 731.29 1185.39 737.955 1190.25 739.975C1192.34 740.783 1194.9 740.244 1196.38 738.628C1197.86 737.012 1198.27 734.387 1197.26 732.434C1196.11 730.213 1193.28 728.731 1190.92 729.607Z" fill="#CE9A90"/>
<path d="M994.833 519.013C983.914 523.053 981.623 539.009 993.282 543.722C998.203 545.741 1004.34 544.328 1007.91 540.423C1011.48 536.518 1012.36 530.324 1009.93 525.611C1007.3 520.427 1000.49 516.926 994.833 519.013Z" fill="#CE9A90"/>
<path d="M968.615 554.359C962.077 556.783 960.729 566.276 967.671 569.103C970.637 570.315 974.276 569.507 976.433 567.151C978.59 564.794 979.061 561.091 977.646 558.264C976.096 555.234 971.985 553.147 968.615 554.359Z" fill="#CE9A90"/>
<path d="M1447.03 554.359C1440.5 556.783 1439.15 566.276 1446.09 569.103C1449.06 570.315 1452.7 569.507 1454.85 567.151C1457.01 564.794 1457.48 561.091 1456.07 558.264C1454.52 555.234 1450.4 553.147 1447.03 554.359Z" fill="#CE9A90"/>
<path d="M934.242 528.978C929.659 530.661 928.715 537.326 933.568 539.346C935.657 540.154 938.218 539.615 939.701 537.999C941.184 536.383 941.588 533.758 940.577 531.805C939.431 529.584 936.601 528.102 934.242 528.978Z" fill="#CE9A90"/>
<path d="M1412.66 528.978C1408.08 530.661 1407.13 537.326 1411.99 539.346C1414.08 540.154 1416.64 539.615 1418.12 537.999C1419.6 536.383 1420.01 533.758 1419 531.805C1417.85 529.584 1415.02 528.102 1412.66 528.978Z" fill="#CE9A90"/>
<path d="M1024.56 736.339C1019.97 738.022 1019.03 744.687 1023.88 746.707C1025.97 747.515 1028.53 746.976 1030.01 745.361C1031.5 743.745 1031.9 741.119 1030.89 739.167C1029.74 736.945 1026.91 735.464 1024.56 736.339Z" fill="#CE9A90"/>
<path d="M533.897 616.298C527.36 618.722 526.012 628.215 532.954 631.042C535.919 632.254 539.559 631.446 541.716 629.09C543.872 626.734 544.344 623.031 542.929 620.203C541.379 617.173 537.267 615.086 533.897 616.298Z" fill="#CE9A90"/>
<path d="M433.474 745.563C426.937 747.986 425.589 757.479 432.531 760.307C435.496 761.519 439.136 760.711 441.292 758.354C443.449 755.998 443.921 752.295 442.506 749.468C440.955 746.438 436.844 744.351 433.474 745.563Z" fill="#CE9A90"/>
<path d="M485.371 605.055C480.788 606.738 479.844 613.403 484.697 615.423C486.786 616.231 489.347 615.692 490.83 614.077C492.313 612.461 492.717 609.835 491.706 607.883C490.561 605.661 487.73 604.18 485.371 605.055Z" fill="#CE9A90"/>
<path d="M554.791 743.745C550.208 745.428 549.264 752.093 554.117 754.113C556.206 754.921 558.767 754.382 560.25 752.766C561.733 751.151 562.137 748.525 561.126 746.573C559.981 744.351 557.15 742.87 554.791 743.745Z" fill="#CE9A90"/>
</g>
</g>
</svg>
